<?xml version="1.0" encoding="UTF-8"?>
<svg width="30px" height="29px" viewBox="0 0 30 29" version="1.1" xmlns="http://www.w3.org/2000/svg" xmlns:xlink="http://www.w3.org/1999/xlink">
    <!-- Generator: sketchtool 61.2 (101010) - https://sketch.com -->
    <title>30F0E5B4-4D60-4133-9A55-75E9750176DC</title>
    <desc>Created with sketchtool.</desc>
    <g id="Page-1" stroke="none" stroke-width="1" fill="none" fill-rule="evenodd">
        <g id="Homepage_v3" transform="translate(-245.000000, -7047.000000)" fill="#172029" fill-rule="nonzero">
            <g id="icn_sun" transform="translate(245.000000, 7047.000000)">
                <path d="M14.5,22 C10.4090909,22 7,18.5909091 7,14.5 C7,10.4090909 10.4090909,7 14.5,7 C18.5909091,7 22,10.4090909 22,14.5 C22,18.5909091 18.5909091,22 14.5,22 Z M14.5,11.0909091 C12.5909091,11.0909091 11.0909091,12.5909091 11.0909091,14.5 C11.0909091,16.4090909 12.5909091,17.9090909 14.5,17.9090909 C16.4090909,17.9090909 17.9090909,16.4090909 17.9090909,14.5 C17.9090909,12.5909091 16.4090909,11.0909091 14.5,11.0909091 Z" id="Shape"></path>
                <path d="M15,6 C13.9333333,6 13,5 13,3.85714286 L13,2.14285714 C13,1 13.9333333,0 15,0 C16.0666667,0 17,1 17,2.14285714 L17,3.85714286 C17,5 16.0666667,6 15,6 Z" id="Shape"></path>
                <path d="M15,29 C13.9333333,29 13,28 13,26.8571429 L13,25.1428571 C13,24 13.9333333,23 15,23 C16.0666667,23 17,24 17,25.1428571 L17,26.8571429 C17,28 16.0666667,29 15,29 Z" id="Shape"></path>
                <path d="M22.0394737,9 C21.5131579,9 20.9868421,8.86666667 20.5921053,8.46666667 C19.8026316,7.66666667 19.8026316,6.46666667 20.5921053,5.66666667 L21.6447368,4.6 C22.4342105,3.8 23.6184211,3.8 24.4078947,4.6 C25.1973684,5.4 25.1973684,6.6 24.4078947,7.4 L23.3552632,8.46666667 C22.9605263,8.86666667 22.4342105,9 22.0394737,9 Z" id="Shape"></path>
                <path d="M6.03947368,25 C5.51315789,25 4.98684211,24.8666667 4.59210526,24.4666667 C3.80263158,23.6666667 3.80263158,22.4666667 4.59210526,21.6666667 L5.64473684,20.6 C6.43421053,19.8 7.61842105,19.8 8.40789474,20.6 C9.19736842,21.4 9.19736842,22.6 8.40789474,23.4 L7.35526316,24.4666667 C7.09210526,24.7333333 6.56578947,25 6.03947368,25 Z" id="Shape"></path>
                <path d="M27.8571429,16 L26.1428571,16 C25,16 24,15.0666667 24,14 C24,12.9333333 25,12 26.1428571,12 L27.8571429,12 C29,12 30,12.9333333 30,14 C30,15.0666667 29.1428571,16 27.8571429,16 Z" id="Shape"></path>
                <path d="M3.85714286,16 L2.14285714,16 C1,16 0,15.0666667 0,14 C0,12.9333333 1,12 2.14285714,12 L3.85714286,12 C5,12 6,12.9333333 6,14 C6,15.0666667 5,16 3.85714286,16 Z" id="Shape"></path>
                <path d="M23.0921053,25 C22.5657895,25 22.0394737,24.8666667 21.6447368,24.4666667 L20.5921053,23.4 C19.8026316,22.6 19.8026316,21.4 20.5921053,20.6 C21.3815789,19.8 22.5657895,19.8 23.3552632,20.6 L24.4078947,21.6666667 C25.1973684,22.4666667 25.1973684,23.6666667 24.4078947,24.4666667 C24.1447368,24.7333333 23.6184211,25 23.0921053,25 Z" id="Shape"></path>
                <path d="M7.09210526,9 C6.56578947,9 6.03947368,8.86666667 5.64473684,8.46666667 L4.59210526,7.4 C3.80263158,6.6 3.80263158,5.4 4.59210526,4.6 C5.38157895,3.8 6.56578947,3.8 7.35526316,4.6 L8.40789474,5.66666667 C9.19736842,6.46666667 9.19736842,7.66666667 8.40789474,8.46666667 C8.01315789,8.86666667 7.48684211,9 7.09210526,9 Z" id="Shape"></path>
            </g>
        </g>
    </g>
</svg>