<?xml version="1.0" encoding="UTF-8"?>
<svg width="82px" height="82px" viewBox="0 0 82 82" version="1.1" xmlns="http://www.w3.org/2000/svg" xmlns:xlink="http://www.w3.org/1999/xlink">
    <!-- Generator: sketchtool 61.2 (101010) - https://sketch.com -->
    <title>FFABEF5D-06E2-41FB-83A8-04A15E1C67D6</title>
    <desc>Created with sketchtool.</desc>
    <g id="Page-1" stroke="none" stroke-width="1" fill="none" fill-rule="evenodd">
        <g id="Homepage_v3" transform="translate(-132.000000, -7063.000000)" fill="#172029" fill-rule="nonzero" stroke="#172029">
            <g id="icn_house" transform="translate(133.000000, 7063.000000)">
                <path d="M79.643,24.717 L71.126,19.567 L71.126,2.072 C71.126,1.519 70.678,1.072 70.126,1.072 L59.5,1.072 C58.948,1.072 58.5,1.519 58.5,2.072 L58.5,11.932 L40.646,1.137 C40.545,1.076 40.435,1.037 40.321,1.019 C40.065,0.96 39.799,1 39.575,1.137 L0.608,24.717 C0.309,24.898 0.126,25.223 0.126,25.572 L0.126,33.822 C0.126,34.18 0.317,34.511 0.628,34.689 C0.939,34.869 1.321,34.865 1.63,34.685 L7.498,31.254 L7.498,71.56 L4.706,71.56 C4.154,71.56 3.706,72.007 3.706,72.56 L3.706,80 C3.706,80.553 4.154,81 4.706,81 L75.544,81 C76.096,81 76.544,80.553 76.544,80 L76.544,72.56 C76.544,72.007 76.096,71.56 75.544,71.56 L72.752,71.56 L72.752,31.256 L78.621,34.685 C78.777,34.776 78.951,34.822 79.125,34.822 C79.297,34.822 79.469,34.778 79.623,34.689 C79.934,34.511 80.125,34.18 80.125,33.822 L80.125,25.572 C80.125,25.223 79.942,24.897 79.643,24.717 Z M60.5,3.072 L69.125,3.072 L69.125,18.357 L60.5,13.142 L60.5,3.072 Z M74.544,79 L5.706,79 L5.706,73.56 L74.544,73.56 L74.544,79 Z M35.125,71.56 L20.125,71.56 L20.125,38.92 L35.125,38.92 L35.125,71.56 Z M70.752,71.56 L37.125,71.56 L37.125,37.92 C37.125,37.367 36.677,36.92 36.125,36.92 L19.125,36.92 C18.573,36.92 18.125,37.367 18.125,37.92 L18.125,71.56 L9.498,71.56 L9.498,30.085 L40.11,12.185 L70.752,30.088 L70.752,71.56 Z M78.125,32.08 L40.615,10.163 C40.459,10.072 40.285,10.026 40.111,10.026 C39.937,10.026 39.762,10.072 39.606,10.163 L2.126,32.079 L2.126,26.136 L40.11,3.15 L78.125,26.135 L78.125,32.08 Z" id="Shape"></path>
                <path d="M45.845,64.086 L62.845,64.086 C63.397,64.086 63.845,63.639 63.845,63.086 L63.845,37.844 C63.845,37.291 63.397,36.844 62.845,36.844 L45.845,36.844 C45.293,36.844 44.845,37.291 44.845,37.844 L44.845,63.086 C44.845,63.639 45.292,64.086 45.845,64.086 Z M46.845,51.37 L53.345,51.37 L53.345,62.047 C53.345,62.061 53.352,62.072 53.353,62.086 L46.845,62.086 L46.845,51.37 Z M55.337,62.086 C55.338,62.072 55.345,62.061 55.345,62.047 L55.345,51.37 L61.845,51.37 L61.845,62.086 L55.337,62.086 Z M61.845,49.37 L55.345,49.37 L55.345,38.844 L61.845,38.844 L61.845,49.37 Z M53.345,38.844 L53.345,49.37 L46.845,49.37 L46.845,38.844 L53.345,38.844 Z" id="Shape"></path>
            </g>
        </g>
    </g>
</svg>