<?xml version="1.0" encoding="UTF-8"?>
<svg width="82px" height="58px" viewBox="0 0 82 58" version="1.1" xmlns="http://www.w3.org/2000/svg" xmlns:xlink="http://www.w3.org/1999/xlink">
    <!-- Generator: sketchtool 61.2 (101010) - https://sketch.com -->
    <title>7C2B7C2D-3196-4F46-ACCF-CE49A5F07771</title>
    <desc>Created with sketchtool.</desc>
    <g id="Page-1" stroke="none" stroke-width="1" fill="none" fill-rule="evenodd">
        <g id="Homepage_v3" transform="translate(-212.000000, -7087.000000)" fill="#172029" fill-rule="nonzero">
            <g id="icn_tree" transform="translate(212.000000, 7087.000000)">
                <path d="M64.5418505,58 L55.5502721,58 C54.7234603,58 54,57.2783505 54,56.4536082 L54,53.9793814 C54,50.6804124 56.6871384,48 59.9943856,48 C63.3016328,48 65.9887712,50.6804124 65.9887712,53.9793814 L65.9887712,56.3505155 C66.0921226,57.2783505 65.4720138,58 64.5418505,58 Z M57.2038957,54.9072165 L63.0949298,54.9072165 L63.0949298,53.9793814 C63.0949298,52.3298969 61.7513607,51.0927835 60.2010885,51.0927835 C58.6508164,51.0927835 57.3072472,52.4329897 57.3072472,53.9793814 L57.3072472,54.9072165 L57.2038957,54.9072165 Z" id="Shape-Copy-9"></path>
                <path d="M25.5,50 C24.7,50 24,49.293578 24,48.4862385 L24,29.5137615 C24,28.706422 24.7,28 25.5,28 C26.3,28 27,28.706422 27,29.5137615 L27,48.3853211 C27,49.293578 26.3,50 25.5,50 Z" id="Shape-Copy-10"></path>
                <path d="M24.4887899,39 C24.1865479,39 23.8843058,38.9051201 23.6828112,38.7153602 C22.9775798,38.2409606 22.7760851,37.3870413 23.2798218,36.7228818 L26.2014947,32.643045 C26.7052314,31.9788855 27.6119574,31.7891257 28.3171888,32.2635253 C29.0224202,32.7379249 29.2239149,33.5918442 28.7201782,34.2560037 L25.7985053,38.3358405 C25.4962633,38.8102401 24.9925266,39 24.4887899,39 Z" id="Shape-Copy-11"></path>
                <path d="M35.6557789,44 L13.5452261,44 C13.0427136,44 12.6407035,43.7990868 12.339196,43.3972603 C12.0376884,42.9954338 11.9371859,42.4931507 12.0376884,42.0913242 L23.0929648,1.10502283 C23.2939698,0.401826484 23.8969849,0 24.5,0 C25.1030151,0 25.8065327,0.502283105 25.9070352,1.10502283 L36.9623116,42.0913242 C37.0628141,42.5936073 36.9623116,42.9954338 36.660804,43.3972603 C36.5603015,43.7990868 36.0577889,44 35.6557789,44 Z M15.4547739,40.9863014 L33.6457286,40.9863014 L24.5,7.23287671 L15.4547739,40.9863014 Z" id="Shape-Copy-12"></path>
                <path d="M25.4104628,31 C24.9067261,31 24.4029894,30.8102401 24.2014947,30.3358405 L21.2798218,26.2560037 C20.7760851,25.5918442 20.9775798,24.7379249 21.6828112,24.2635253 C22.3880426,23.7891257 23.2947686,23.9788855 23.7985053,24.643045 L26.7201782,28.7228818 C27.2239149,29.3870413 27.0224202,30.2409606 26.3171888,30.7153602 C25.9141995,31 25.6119574,31 25.4104628,31 Z" id="Shape-Copy-13"></path>
                <path d="M80.591411,58 L1.50920245,58 C0.704294479,58 0,57.3 0,56.5 C0,55.7 0.704294479,55 1.50920245,55 L80.4907975,55 C81.2957055,55 82,55.7 82,56.5 C82,57.3 81.396319,58 80.591411,58 Z" id="Shape-Copy-14"></path>
                <path d="M49,47 C44.6,47 41,43.4 41,39 C41,34.6 44.6,31 49,31 C53.4,31 57,34.6 57,39 C57,43.4 53.4,47 49,47 Z M49,34 C46.2,34 44,36.2 44,39 C44,41.8 46.2,44 49,44 C51.8,44 54,41.8 54,39 C54,36.2 51.7,34 49,34 Z" id="Shape-Copy-15"></path>
                <path d="M49.5,58 C48.7,58 48,57.3108808 48,56.5233161 L48,40.4766839 C48,39.6891192 48.7,39 49.5,39 C50.3,39 51,39.6891192 51,40.4766839 L51,56.5233161 C51,57.3108808 50.3,58 49.5,58 Z" id="Shape-Copy-16"></path>
            </g>
        </g>
    </g>
</svg>