<?xml version="1.0" encoding="UTF-8"?>
<svg width="56px" height="38px" viewBox="0 0 56 38" version="1.1" xmlns="http://www.w3.org/2000/svg" xmlns:xlink="http://www.w3.org/1999/xlink">
    <!-- Generator: sketchtool 61.2 (101010) - https://sketch.com -->
    <title>6F6BCEEE-DA66-4F31-B25D-894789E45F7D</title>
    <desc>Created with sketchtool.</desc>
    <g id="Page-1" stroke="none" stroke-width="1" fill="none" fill-rule="evenodd">
        <g id="Homepage_v3" transform="translate(-347.000000, -7107.000000)" fill="#172029" fill-rule="nonzero" stroke="#172029">
            <g id="icn_car" transform="translate(348.000000, 7108.000000)">
                <path d="M54,18.0959716 C54,15.6007109 51.980315,13.5746445 49.4929134,13.5746445 L46.4633858,13.5746445 C44.3161417,5.5450237 37.1515748,0 28.8070866,0 C20.4625984,0 13.2980315,5.5450237 11.1507874,13.5746445 L8.63149606,13.5746445 C3.86929134,13.5746445 0,17.4561611 0,22.2334123 L0,30.5722749 L5.48503937,30.5722749 C5.92086614,33.6327014 8.55708661,36 11.7248031,36 C14.9031496,36 17.5287402,33.6327014 17.9645669,30.5722749 L36.1523622,30.5722749 C36.588189,33.6327014 39.2244094,36 42.392126,36 C45.5704724,36 48.196063,33.6327014 48.6318898,30.5722749 L54,30.5722749 L54,18.0959716 Z M44.5818898,13.5746445 L32.6019685,13.5746445 L32.6019685,2.26066351 C38.2783465,3.58293839 42.8598425,7.82701422 44.5818898,13.5746445 Z M28.8070866,1.8021327 C29.4874016,1.8021327 30.1464567,1.85545024 30.8055118,1.94075829 L30.8055118,13.5746445 L13.0322835,13.5746445 C15.115748,6.59004739 21.4405512,1.8021327 28.8070866,1.8021327 Z M2.28543307,19.7168246 L3.60354331,19.7168246 C4.10314961,19.7168246 4.50708661,20.1220379 4.50708661,20.6232227 C4.50708661,21.1244076 4.10314961,21.5296209 3.60354331,21.5296209 L1.83897638,21.5296209 C1.90275591,20.8898104 2.06220472,20.2819905 2.28543307,19.7168246 Z M11.7248031,34.1978673 C9.23740157,34.1978673 7.21771654,32.1718009 7.21771654,29.6765403 C7.21771654,27.1812796 9.23740157,25.1552133 11.7248031,25.1552133 C14.2122047,25.1552133 16.2319313,27.1812796 16.2319313,29.6765403 C16.2425197,32.1611374 14.2122047,34.1978673 11.7248031,34.1978673 Z M42.4027559,34.1978673 C39.9153543,34.1978673 37.8956693,32.1718009 37.8956693,29.6765403 C37.8956693,27.1812796 39.9153543,25.1552133 42.4027559,25.1552133 C44.8901575,25.1552133 46.9098425,27.1812796 46.9098425,29.6765403 C46.9098425,32.1611374 44.8901575,34.1978673 42.4027559,34.1978673 Z M52.1929134,28.7594787 L48.6425197,28.7594787 C48.2066929,25.6990521 45.5704724,23.3317536 42.4027559,23.3317536 C39.2244094,23.3317536 36.5988189,25.6990521 36.1629921,28.7594787 L17.9751969,28.7594787 C17.5393701,25.6990521 14.9031496,23.3317536 11.7354331,23.3317536 C8.55708661,23.3317536 5.93149606,25.6990521 5.49566929,28.7594787 L1.80708661,28.7594787 L1.80708661,23.3317536 L3.61417323,23.3317536 C5.1023622,23.3317536 6.32480315,22.1161137 6.32480315,20.6125592 C6.32480315,19.1090047 5.1023622,17.9040284 3.60354331,17.9040284 L3.33779528,17.9040284 C4.59212598,16.3684834 6.49488189,15.3874408 8.62086614,15.3874408 L49.4716535,15.3874408 C50.9598425,15.3874408 52.1822835,16.6030806 52.1822835,18.1066351 L52.1822835,28.7594787 L52.1929134,28.7594787 Z" id="Shape-Copy-4"></path>
                <polygon id="Rectangle-path-Copy" points="25 17 29 17 29 19 25 19"></polygon>
            </g>
        </g>
    </g>
</svg>