<?xml version="1.0" encoding="UTF-8"?>
<svg width="152px" height="52px" viewBox="0 0 152 52" version="1.1" xmlns="http://www.w3.org/2000/svg" xmlns:xlink="http://www.w3.org/1999/xlink">
    <!-- Generator: sketchtool 63.1 (101010) - https://sketch.com -->
    <title>4C900C30-BFEC-47F0-A0A1-87C9526538C4</title>
    <desc>Created with sketchtool.</desc>
    <g id="Page-1" stroke="none" stroke-width="1" fill="none" fill-rule="evenodd">
        <g id="Homepage_v3" transform="translate(-71.000000, -7385.000000)">
            <g id="Group-35" transform="translate(-2.000000, 7145.000000)">
                <g id="icn_apple" transform="translate(74.000000, 241.000000)">
                    <rect id="background" stroke="#FFFFFF" stroke-width="0.833333333" fill="#000000" x="0" y="0" width="150" height="50" rx="4.16666667"></rect>
                    <path d="M65.0978875,20.1397015 C66.3381831,20.1397015 67.3735888,20.6294649 68.2019133,21.6100872 C69.0291423,22.5929009 69.4444002,23.8835971 69.4444002,25.4843672 C69.4444002,27.2724964 68.9590195,28.6859074 67.9871625,29.7235044 C67.1172026,30.6471521 66.0357788,31.108428 64.7461783,31.108428 C63.353585,31.108428 62.3521449,30.6120907 61.7440496,29.616129 L61.7440496,35.1328145 L59.4080866,35.1328145 L59.4080866,23.8123787 C59.4080866,22.6893196 59.3785037,21.5377732 59.3215289,20.3566437 L61.3759053,20.3566437 L61.5062897,22.0242495 L61.5501164,22.0242495 C62.329136,20.767519 63.5113611,20.1397015 65.0978875,20.1397015 Z M77.1896732,20.1397015 C78.428873,20.1397015 79.4653744,20.6294649 80.2947946,21.6100872 C81.1209278,22.5929009 81.5372815,23.8835971 81.5372815,25.4843672 C81.5372815,27.2724964 81.0519008,28.6859074 80.0800438,29.7235044 C79.2089883,30.6471521 78.1286602,31.108428 76.837964,31.108428 C75.4464663,31.108428 74.4450263,30.6120907 73.8358352,29.616129 L73.8358352,35.1328145 L71.4998722,35.1328145 L71.4998722,23.8123787 C71.4998722,22.6893196 71.4702892,21.5377732 71.4133146,20.3566437 L73.467691,20.3566437 L73.5980753,22.0242495 L73.6419021,22.0242495 C74.4198259,20.767519 75.602051,20.1397015 77.1896732,20.1397015 Z M109.332172,20.1429885 C110.875968,20.1429885 112.114072,20.6568565 113.053059,21.6791142 C113.949315,22.6728846 114.395252,23.9537198 114.395252,25.5270982 C114.395252,27.1432076 113.933976,28.4700609 113.010328,29.507658 C112.045045,30.574838 110.760923,31.108428 109.160153,31.108428 C107.615262,31.108428 106.387019,30.5967514 105.471041,29.573398 C104.555063,28.5500446 104.097074,27.2593484 104.097074,25.702405 C104.097074,24.0731476 104.571498,22.7386246 105.513772,21.7010276 C106.458237,20.6634305 107.731402,20.1429885 109.332172,20.1429885 Z M91.2043551,16.0736797 C92.5312083,16.0736797 93.6367368,16.3048656 94.5143664,16.7661415 L93.9281843,18.6704115 C93.102051,18.2233792 92.1696381,17.9998631 91.1265627,17.9998631 C90.3026209,17.9998631 89.6550814,18.2025615 89.1938054,18.6057671 C88.8048435,18.9662417 88.6065276,19.4056044 88.6065276,19.9271421 C88.6065276,20.5023674 88.8311395,20.9800784 89.2792675,21.353701 C89.6671337,21.6999319 90.3749348,22.0757459 91.3982882,22.4789515 C92.6539231,22.9851498 93.5753794,23.5746189 94.1670398,24.2517414 C94.7619872,24.9288638 95.0578174,25.7736234 95.0578174,26.7816374 C95.0578174,28.021933 94.6250288,29.0310427 93.7616429,29.8100622 C92.8127948,30.6603001 91.488133,31.0865147 89.7898484,31.0865147 C88.2208527,31.0865147 86.9630266,30.7841105 86.0141785,30.1782065 L86.5543426,28.2312054 C87.5787917,28.8371095 88.7040421,29.1406094 89.9289982,29.1406094 C90.8099148,29.1406094 91.494707,28.9411979 91.9833746,28.5456619 C92.4742336,28.1479346 92.7207588,27.6187273 92.7207588,26.9569442 C92.7207588,26.3641881 92.5169647,25.8667551 92.1137591,25.4624538 C91.7094577,25.0603439 91.0411006,24.6834343 90.1032093,24.3393947 C87.5503043,23.3872598 86.272756,21.9935708 86.272756,20.1627105 C86.272756,18.9662417 86.724171,17.986715 87.623714,17.2208435 C88.5243526,16.4560677 89.71863,16.0736797 91.2043551,16.0736797 Z M100.226081,17.7347115 L100.226081,20.352261 L102.800899,20.352261 L102.800899,22.1097115 L100.226081,22.1097115 L100.226081,27.214426 C100.226081,28.512792 100.679687,29.1603314 101.589091,29.1603314 C102.00654,29.1603314 102.352771,29.12527 102.626688,29.0518603 L102.691332,30.8257459 C102.231152,30.9977656 101.625248,31.0843234 100.875811,31.0843234 C99.9521638,31.0843234 99.2323102,30.8016412 98.7107726,30.2395638 C98.1914262,29.6763907 97.9317531,28.7330211 97.9317531,27.4050722 L97.9317531,22.1053289 L96.3989143,22.1053289 L96.3989143,20.352261 L97.9317531,20.352261 L97.9317531,18.4271734 L100.226081,17.7347115 Z M128.070277,20.1232665 C129.585585,20.1232665 130.732749,20.6853439 131.510672,21.8094987 C132.128629,22.7002763 132.438703,23.804709 132.438703,25.1162229 C132.438703,25.5347679 132.411311,25.8875728 132.353241,26.1757333 L125.346447,26.1757333 C125.371648,27.214426 125.7124,28.0098806 126.362131,28.5577143 C126.952696,29.046382 127.717472,29.2918115 128.654267,29.2918115 C129.691865,29.2918115 130.638521,29.1274614 131.489855,28.7943785 L131.855808,30.4159662 C130.860942,30.8487548 129.68529,31.065697 128.331046,31.065697 C126.700692,31.065697 125.420953,30.5857947 124.489636,29.6281814 C123.561605,28.6694724 123.094851,27.3798718 123.094851,25.7670494 C123.094851,24.1827143 123.526544,22.8624351 124.394313,21.8094987 C125.301525,20.6853439 126.527577,20.1232665 128.070277,20.1232665 Z M52.6784974,16.2895262 L57.3942499,30.8706682 L54.9059892,30.8706682 L53.5429789,26.5877043 L48.805313,26.5877043 L47.5069471,30.8706682 L45.0844265,30.8706682 L49.7793614,16.2895262 L52.6784974,16.2895262 Z M121.405332,20.1397015 C121.621178,20.1397015 121.816207,20.1561365 121.989323,20.1824326 L121.991514,22.4110201 C121.760328,22.3682891 121.512707,22.3474714 121.255225,22.3474714 C120.433475,22.3474714 119.797988,22.6553539 119.350955,23.277693 C118.961993,23.8255267 118.76806,24.5179885 118.76806,25.3539828 L118.76806,30.8706682 L116.432097,30.8706682 L116.432097,23.6677506 C116.432097,22.4570381 116.409088,21.3515097 116.364166,20.3577393 L118.39882,20.3577393 L118.484282,22.3693847 L118.548927,22.3693847 C118.796548,21.6780186 119.184414,21.1203239 119.716908,20.7039703 C120.238446,20.3270607 120.799428,20.1397015 121.405332,20.1397015 Z M109.248902,21.8489427 C108.314297,21.8489427 107.594444,22.2652963 107.106872,23.1001949 C106.687231,23.791561 106.48015,24.6319379 106.48015,25.6246126 C106.48015,26.5888 106.687231,27.4171245 107.106872,28.1052037 C107.611975,28.9411979 108.316489,29.3586472 109.230275,29.3586472 C110.122149,29.3586472 110.82228,28.9313369 111.329574,28.0854816 C111.75798,27.3776805 111.973827,26.5460689 111.973827,25.5807859 C111.973827,24.6176943 111.76565,23.791561 111.348201,23.1001949 C110.858437,22.2652963 110.156114,21.8489427 109.248902,21.8489427 Z M64.33859,22.0001448 C63.762269,22.0001448 63.2385399,22.1929823 62.77069,22.5742745 C62.3017443,22.9566625 61.9949574,23.4573825 61.851425,24.0786259 C61.7791109,24.3667864 61.7429539,24.6023549 61.7429539,24.7886184 L61.7429539,26.5438776 C61.7429539,27.3064621 61.9774267,27.9518102 62.4463724,28.4799219 C62.915318,29.0058423 63.5245091,29.2698981 64.2739456,29.2698981 C65.1537666,29.2698981 65.8385587,28.9291455 66.3283221,28.2531188 C66.8191811,27.5749007 67.0646106,26.680836 67.0646106,25.5698293 C67.0646106,24.5464759 66.8345204,23.702812 66.3721487,23.0388375 C65.8670461,22.3474714 65.1888279,22.0001448 64.33859,22.0001448 Z M76.4314713,22.0001448 C75.8551503,22.0001448 75.3314212,22.1929823 74.8613799,22.5742745 C74.3935299,22.9566625 74.086743,23.4573825 73.9432106,24.0786259 C73.8719922,24.3667864 73.8336439,24.6023549 73.8336439,24.7886184 L73.8336439,26.5438776 C73.8336439,27.3064621 74.0692124,27.9518102 74.5359666,28.4799219 C75.0049123,29.0047466 75.6141034,29.2698981 76.3657312,29.2698981 C77.2466479,29.2698981 77.93144,28.9291455 78.4201076,28.2531188 C78.9109666,27.5749007 79.1563961,26.680836 79.1563961,25.5698293 C79.1563961,24.5464759 78.9252103,23.702812 78.4628387,23.0388375 C77.9588317,22.3474714 77.2817092,22.0001448 76.4314713,22.0001448 Z M51.164285,18.2365272 L51.1204583,18.2365272 C50.9758302,18.856675 50.7446444,19.7726529 50.4279965,20.9844611 L49.2161883,24.7908097 L53.1321037,24.7908097 L51.8994778,20.9844611 C51.7690934,20.5944035 51.5236639,19.6784255 51.164285,18.2365272 Z M127.897161,21.739376 C127.132385,21.739376 126.511142,22.0560238 126.037814,22.6915109 C125.648852,23.1966136 125.417666,23.804709 125.346447,24.5081275 L130.211211,24.5103189 C130.227646,23.8167614 130.074252,23.2207183 129.757605,22.71452 C129.353303,22.0636935 128.730964,21.739376 127.897161,21.739376 Z" id="Combined-Shape" fill="#FFFFFF"></path>
                    <path d="M24.647955,17.0555761 C25.7458138,17.0555761 27.8363472,15.5391724 29.991525,15.7659755 C30.8932593,15.7922715 33.4593124,16.1220674 35.1148658,18.5358228 C34.9811944,18.6158065 32.0579538,20.333813 32.0897281,23.8651491 C32.1269808,28.0977123 35.793084,29.4968796 35.8369106,29.5111233 C35.8149973,29.6097333 35.262781,31.5326296 33.8877183,33.4807263 C32.7394589,35.1987328 31.5364161,36.878391 29.6255721,36.9068784 C27.7695115,36.9507051 27.144981,35.8155936 25.0160992,35.8155936 C22.8674955,35.8155936 22.2024253,36.878391 20.4219658,36.9507051 C18.6020622,37.0175408 17.2116602,35.1187491 16.0217654,33.416082 C13.6430715,29.9417206 11.7913935,23.625198 14.2741759,19.3268946 C15.4772187,17.2188305 17.6707449,15.8612986 20.0154732,15.8251416 C21.8375681,15.7878889 23.528183,17.0555761 24.647955,17.0555761 Z M30.0145341,9.00022922 C30.1964148,10.6535914 29.5412057,12.2828488 28.5835924,13.4804133 C27.5843437,14.6593514 25.9857649,15.5610857 24.4288215,15.444945 C24.2250273,13.8540359 25.013908,12.1623254 25.8970159,11.1302067 C26.8951688,9.95893821 28.6285147,9.0615866 30.0145341,9.00022922 Z" id="Combined-Shape" fill="#FFFFFF"></path>
                </g>
            </g>
        </g>
    </g>
</svg>