<svg xmlns="http://www.w3.org/2000/svg" width="393.348" height="89.999" viewBox="0 0 393.348 89.999">
  <g id="houzz-logo_logotyp.us" data-name="houzz-logo@logotyp.us" transform="translate(-83.326 -155)">
    <path id="Path_31" data-name="Path 31" d="M132.916,243.794h29.791V193.357l-59.631-17.1V155H83.326v88.794h29.791V215.838h19.8Z" fill="#4dbc15" fill-rule="evenodd"/>
    <path id="Path_32" data-name="Path 32" d="M334.706,193.808v27.335a18.011,18.011,0,0,0,.649,4.622A12.577,12.577,0,0,0,337.429,230a10.837,10.837,0,0,0,3.719,3.112,14.369,14.369,0,0,0,11.466,0A10.846,10.846,0,0,0,356.333,230a12.643,12.643,0,0,0,2.074-4.234,17.872,17.872,0,0,0,.642-4.622V193.928h10.979V222.2c0,7.254-2.42,16.808-13.964,21.168a26.681,26.681,0,0,1-18.247.042c-9.406-3.528-14.077-10.584-14.077-21.168V193.808H334.7Zm-30.574,6.52a26.747,26.747,0,0,1,5.617,8.3,25.478,25.478,0,0,1,2.053,10.2,25.913,25.913,0,0,1-7.684,18.55,26.821,26.821,0,0,1-8.4,5.567,27.393,27.393,0,0,1-20.794,0,26.821,26.821,0,0,1-8.4-5.567,25.9,25.9,0,0,1-7.67-18.55,25.515,25.515,0,0,1,2.053-10.2,26.579,26.579,0,0,1,43.218-8.3Zm118.888-6.435v9.427l-26.27,30.637h27.688V243.8H382.723v-9.526L408.8,203.735H383.633v-9.843H423.02Zm52.236,0v9.427l-26.27,30.637h27.688V243.8H434.959v-9.526l26.079-30.539H435.869v-9.843h39.387ZM213.349,176.26v21.006c5.849-4.713,14.888-5.969,22.255-2.921,7.656,3.168,12.045,10.189,12.052,19.263v30.179H236.613V217.242c0-6.238-3.168-13.526-12.087-13.526-9.716,0-11.17,8.474-11.17,13.526v26.552H202.3V176.26Zm85.731,48.962a19.9,19.9,0,0,0,0-12.8,14.3,14.3,0,0,0-2.928-4.939,13.666,13.666,0,0,0-4.629-3.211,16.758,16.758,0,0,0-12.383,0,13.628,13.628,0,0,0-4.629,3.211,14.21,14.21,0,0,0-2.935,4.939,19.882,19.882,0,0,0,0,12.8,14.216,14.216,0,0,0,2.935,4.939,13.628,13.628,0,0,0,4.629,3.211,16.807,16.807,0,0,0,12.383,0,13.652,13.652,0,0,0,4.629-3.211A14.281,14.281,0,0,0,299.08,225.222Z" fill-rule="evenodd"/>
  </g>
</svg>
