<svg xmlns="http://www.w3.org/2000/svg" width="356.411" height="68.668" viewBox="0 0 356.411 68.668">
  <g id="national-kitchen-and-bath-association-nkba-vector-logo" transform="translate(-26.8 -268.3)">
    <path id="Path_1" data-name="Path 1" d="M69.213,269.8v37.72L28.76,269.8H26.8v67.421H39.809l-.059-37.78,40.571,37.78V269.8Z" transform="translate(0 -0.609)" fill="#b9b0a1"/>
    <g id="Group_1" data-name="Group 1" transform="translate(80.262 268.3)">
      <path id="Path_2" data-name="Path 2" d="M198.18,299.679c5.821-1.9,9.5-6.118,9.5-12.356,0-9.5-7.009-17.524-19.6-17.524h-34.75l-22.691,30.948V269.8H116.8v67.48h13.841V318.628l6.534-7.841,17.939,26.493H189.27c14.078,0,22.573-8.851,22.573-20.85,0-8.435-4.455-14.613-13.662-16.751m-51.68.653,15.563-20.909v43.482Zm29.4-18.3H187.31c4.277,0,6.712,2.495,6.712,6.356s-2.97,6.356-7.425,6.356H175.9Zm12.771,43.007H175.9V306.51h12c6.356,0,9.979,3.742,9.979,9.207,0,5.524-3.564,9.326-9.207,9.326" transform="translate(-116.8 -268.909)" fill="#2a1747"/>
      <path id="Path_3" data-name="Path 3" d="M289.348,268.3H288.16L258.4,336.612h13.425l3.208-7.663h27.384l3.208,7.663H320.3Zm-9.564,49.006,8.673-21.028,8.97,21.028Z" transform="translate(-174.287 -268.3)" fill="#b9b0a1"/>
      <path id="Path_4" data-name="Path 4" d="M384.4,294.276l8.079,12.177h1.782V291.9H392.6v12.177L384.523,291.9H382.8v14.553h1.6Z" transform="translate(-224.791 -277.881)" fill="#2a1747"/>
      <path id="Path_5" data-name="Path 5" d="M408.486,302h6.3l1.663,4.515h1.723L412.585,291.9h-1.723L405.1,306.513h1.723Zm.535-1.426,2.614-6.95,2.614,6.95Z" transform="translate(-233.845 -277.881)" fill="#2a1747"/>
      <path id="Path_6" data-name="Path 6" d="M429.074,306.453h1.6V293.326h4.515V291.9H424.5v1.426h4.574Z" transform="translate(-241.721 -277.881)" fill="#2a1747"/>
      <rect id="Rectangle_1" data-name="Rectangle 1" width="1.663" height="14.613" transform="translate(195.61 14.019)" fill="#2a1747"/>
      <path id="Path_7" data-name="Path 7" d="M455.363,304.368a6.5,6.5,0,0,0,2.138,1.663,7.722,7.722,0,0,0,5.94,0,6.5,6.5,0,0,0,2.138-1.663,7.425,7.425,0,0,0,1.307-2.435,10.815,10.815,0,0,0,0-5.94,6.4,6.4,0,0,0-1.307-2.435,6.5,6.5,0,0,0-2.138-1.663,6.633,6.633,0,0,0-2.97-.594,6.233,6.233,0,0,0-5.049,2.257,6.875,6.875,0,0,0-1.307,2.435,9.451,9.451,0,0,0-.416,2.97,9.706,9.706,0,0,0,.416,2.97,6.338,6.338,0,0,0,1.247,2.435m7.247-11.227a4.907,4.907,0,0,1,1.663,1.247,5.119,5.119,0,0,1,1.01,1.96,8.971,8.971,0,0,1,.356,2.614,10.41,10.41,0,0,1-.3,2.376,5.036,5.036,0,0,1-.95,1.96,4.48,4.48,0,0,1-1.6,1.366,4.767,4.767,0,0,1-2.317.535,5.84,5.84,0,0,1-2.376-.475,4.48,4.48,0,0,1-1.6-1.366,7.494,7.494,0,0,1-.95-1.96,9.653,9.653,0,0,1,0-4.752,5.035,5.035,0,0,1,.95-1.96,4.48,4.48,0,0,1,1.6-1.366,4.767,4.767,0,0,1,2.317-.535,4.409,4.409,0,0,1,2.2.356" transform="translate(-253.575 -277.638)" fill="#2a1747"/>
      <path id="Path_8" data-name="Path 8" d="M490.7,304.077,482.623,291.9H480.9v14.553h1.6V294.276l8.079,12.177h1.782V291.9H490.7Z" transform="translate(-264.618 -277.881)" fill="#2a1747"/>
      <path id="Path_9" data-name="Path 9" d="M506.586,302h6.3l1.663,4.515h1.723L510.685,291.9h-1.723L503.2,306.513h1.723Zm.535-1.426,2.614-6.95,2.614,6.95Z" transform="translate(-273.672 -277.881)" fill="#2a1747"/>
      <path id="Path_10" data-name="Path 10" d="M529.763,291.9H528.1v14.553h9.326v-1.426h-7.663Z" transform="translate(-283.78 -277.881)" fill="#2a1747"/>
      <path id="Path_11" data-name="Path 11" d="M393.692,325.2h-1.96l-7.128,7.247V325.2H383v14.613h1.6v-5.584l2.138-2.138,5.881,7.722h2.02l-6.772-8.732Z" transform="translate(-224.872 -291.4)" fill="#2a1747"/>
      <rect id="Rectangle_2" data-name="Rectangle 2" width="1.663" height="14.613" transform="translate(171.731 33.8)" fill="#2a1747"/>
      <path id="Path_12" data-name="Path 12" d="M418.378,339.813V326.685h4.515V325.2H412.2v1.485h4.515v13.128Z" transform="translate(-236.727 -291.4)" fill="#2a1747"/>
      <path id="Path_13" data-name="Path 13" d="M435.3,324.935a5.092,5.092,0,0,0-2.138,1.366,6.668,6.668,0,0,0-1.426,2.376,10.116,10.116,0,0,0-.535,3.5,11.5,11.5,0,0,0,.356,2.911,6.568,6.568,0,0,0,1.129,2.435,5.865,5.865,0,0,0,1.96,1.663,6.208,6.208,0,0,0,2.911.594,6.78,6.78,0,0,0,2.554-.416,5.676,5.676,0,0,0,1.841-1.129,4.907,4.907,0,0,0,1.247-1.663,11.018,11.018,0,0,0,.713-1.96l.059-.178h-1.723v.119a4.9,4.9,0,0,1-.594,1.544,3.127,3.127,0,0,1-.95,1.188,3.391,3.391,0,0,1-1.247.772,4.535,4.535,0,0,1-1.6.3,4.846,4.846,0,0,1-2.376-.535,3.815,3.815,0,0,1-1.485-1.426,6.87,6.87,0,0,1-.832-2.02,10.23,10.23,0,0,1-.238-2.317,10.408,10.408,0,0,1,.3-2.376,4.963,4.963,0,0,1,.891-1.96,5.437,5.437,0,0,1,1.485-1.366,4.068,4.068,0,0,1,2.138-.475,4.635,4.635,0,0,1,2.851.772,3.9,3.9,0,0,1,1.485,2.495v.119h1.663v-.178a6.724,6.724,0,0,0-.653-2.02,4.283,4.283,0,0,0-1.247-1.485,4.333,4.333,0,0,0-1.723-.891,7.99,7.99,0,0,0-2.079-.3,12.379,12.379,0,0,0-2.732.535" transform="translate(-244.441 -291.076)" fill="#2a1747"/>
      <path id="Path_14" data-name="Path 14" d="M467.965,339.813V325.2H466.3v6.178h-8.138V325.2H456.5v14.613h1.663V332.8H466.3v7.009Z" transform="translate(-254.712 -291.4)" fill="#2a1747"/>
      <path id="Path_15" data-name="Path 15" d="M491.139,338.387h-8.376v-5.406h7.366v-1.426h-7.366v-4.871H490.9V325.2h-9.8v14.613h10.039Z" transform="translate(-264.699 -291.4)" fill="#2a1747"/>
      <path id="Path_16" data-name="Path 16" d="M503.163,327.635l8.019,12.177h1.782V325.2H511.3v12.237L503.223,325.2H501.5v14.613h1.663Z" transform="translate(-272.981 -291.4)" fill="#2a1747"/>
      <path id="Path_17" data-name="Path 17" d="M529.336,330.1v4.336H525v1.485h4.336v4.4h1.485v-4.4h4.4v-1.485h-4.4V330.1Z" transform="translate(-282.522 -293.39)" fill="#2a1747"/>
      <path id="Path_18" data-name="Path 18" d="M554.26,339.575a3.374,3.374,0,0,0,1.544-.713,3.683,3.683,0,0,0,1.01-1.307,4.817,4.817,0,0,0,.356-1.96,3.8,3.8,0,0,0-.772-2.495,3.1,3.1,0,0,0-1.782-1.129l.356-.178a2.449,2.449,0,0,0,.772-.594,2.478,2.478,0,0,0,.535-.95,4.486,4.486,0,0,0,.178-1.366,3.891,3.891,0,0,0-.3-1.485,2.531,2.531,0,0,0-.891-1.188,3.926,3.926,0,0,0-1.485-.772,8.031,8.031,0,0,0-2.2-.238H546.3v14.613h6a6.826,6.826,0,0,0,1.96-.238m.416-11.7a2.878,2.878,0,0,1,.178,1.069,3.459,3.459,0,0,1-.178,1.129,1.521,1.521,0,0,1-.594.772,2.934,2.934,0,0,1-1.069.475,7.31,7.31,0,0,1-1.723.178h-3.267v-4.871h2.97a15.093,15.093,0,0,1,1.841.119,3.1,3.1,0,0,1,1.188.416,1.889,1.889,0,0,1,.653.713m.594,9.207a2.07,2.07,0,0,1-.772.832,5.649,5.649,0,0,1-1.307.416,17.112,17.112,0,0,1-1.9.119h-3.267v-5.406h3.445a14.72,14.72,0,0,1,1.723.119,3.082,3.082,0,0,1,1.307.416,1.931,1.931,0,0,1,.772.772,3.1,3.1,0,0,1,.3,1.366,4.235,4.235,0,0,1-.3,1.366" transform="translate(-291.169 -291.4)" fill="#2a1747"/>
      <path id="Path_19" data-name="Path 19" d="M569.686,335.3h6.3l1.663,4.515h1.723L573.785,325.2h-1.723L566.3,339.813h1.723Zm.594-1.426,2.614-6.95,2.614,6.95Z" transform="translate(-299.289 -291.4)" fill="#2a1747"/>
      <path id="Path_20" data-name="Path 20" d="M586.4,326.685h4.515v13.128h1.6V326.685h4.574V325.2H586.4Z" transform="translate(-307.449 -291.4)" fill="#2a1747"/>
      <path id="Path_21" data-name="Path 21" d="M617.3,325.2v6.178h-8.2V325.2h-1.6v14.613h1.6V332.8h8.2v7.009h1.663V325.2Z" transform="translate(-316.015 -291.4)" fill="#2a1747"/>
      <path id="Path_22" data-name="Path 22" d="M386.262,358.6,380.5,373.213h1.723l1.663-4.515h6.3l1.663,4.515h1.723L387.985,358.6Zm-1.782,8.673,2.614-6.95,2.614,6.95Z" transform="translate(-223.857 -304.96)" fill="#2a1747"/>
      <path id="Path_23" data-name="Path 23" d="M413.326,366.079a4.967,4.967,0,0,0-1.366-.713,11.735,11.735,0,0,0-1.544-.475c-.535-.119-1.069-.238-1.544-.356a9.183,9.183,0,0,1-1.366-.416,3.3,3.3,0,0,1-1.01-.653,1.848,1.848,0,0,1-.535-1.01,2.182,2.182,0,0,1,.059-1.069,3.013,3.013,0,0,1,.535-.95,2.416,2.416,0,0,1,1.069-.713,4.623,4.623,0,0,1,1.663-.3,4.522,4.522,0,0,1,1.247.178,3.016,3.016,0,0,1,1.069.535,3.172,3.172,0,0,1,.772.95,3.1,3.1,0,0,1,.3,1.366v.119h1.6v-.119a5.518,5.518,0,0,0-.3-1.723,3.761,3.761,0,0,0-.95-1.426,4.514,4.514,0,0,0-1.544-.95,5.978,5.978,0,0,0-2.138-.356,7.427,7.427,0,0,0-2.138.3,4.8,4.8,0,0,0-1.544.891,3.542,3.542,0,0,0-.95,1.307,3.95,3.95,0,0,0,.119,3.267,3.273,3.273,0,0,0,1.01,1.188,5.341,5.341,0,0,0,1.426.713,16.388,16.388,0,0,0,1.6.475,15.928,15.928,0,0,1,1.6.416,4.685,4.685,0,0,1,1.366.535,2.542,2.542,0,0,1,.95.832,2.067,2.067,0,0,1,.356,1.247,3.363,3.363,0,0,1-.178,1.069,2.349,2.349,0,0,1-.594.891,3.115,3.115,0,0,1-1.069.594,4.347,4.347,0,0,1-1.6.238,5.984,5.984,0,0,1-1.485-.178,2.5,2.5,0,0,1-1.188-.594,2.321,2.321,0,0,1-.832-1.01,3.932,3.932,0,0,1-.416-1.544v-.119H404v.119a4.648,4.648,0,0,0,.416,2.079,3.961,3.961,0,0,0,1.129,1.485,4.333,4.333,0,0,0,1.723.891,7.99,7.99,0,0,0,2.079.3,5.933,5.933,0,0,0,3.921-1.129,3.905,3.905,0,0,0,1.426-3.208,3.967,3.967,0,0,0-.356-1.782,2.85,2.85,0,0,0-1.01-1.188" transform="translate(-233.398 -304.717)" fill="#2a1747"/>
      <path id="Path_24" data-name="Path 24" d="M434.326,366.079a4.967,4.967,0,0,0-1.366-.713,11.736,11.736,0,0,0-1.544-.475c-.535-.119-1.069-.238-1.544-.356a9.184,9.184,0,0,1-1.366-.416,3.3,3.3,0,0,1-1.01-.653,1.848,1.848,0,0,1-.535-1.01,2.182,2.182,0,0,1,.059-1.069,3.012,3.012,0,0,1,.535-.95,2.416,2.416,0,0,1,1.069-.713,4.622,4.622,0,0,1,1.663-.3,4.522,4.522,0,0,1,1.247.178,3.015,3.015,0,0,1,1.069.535,3.171,3.171,0,0,1,.772.95,3.1,3.1,0,0,1,.3,1.366v.119h1.6v-.119a5.518,5.518,0,0,0-.3-1.723,3.761,3.761,0,0,0-.95-1.426,4.515,4.515,0,0,0-1.544-.95,5.978,5.978,0,0,0-2.138-.356,7.428,7.428,0,0,0-2.138.3,4.8,4.8,0,0,0-1.544.891,3.542,3.542,0,0,0-.95,1.307,3.95,3.95,0,0,0,.119,3.267,3.273,3.273,0,0,0,1.01,1.188,5.341,5.341,0,0,0,1.426.713,16.39,16.39,0,0,0,1.6.475,15.924,15.924,0,0,1,1.6.416,4.684,4.684,0,0,1,1.366.535,2.542,2.542,0,0,1,.95.832,2.067,2.067,0,0,1,.356,1.247,3.364,3.364,0,0,1-.178,1.069,2.349,2.349,0,0,1-.594.891,3.115,3.115,0,0,1-1.069.594,4.347,4.347,0,0,1-1.6.238,5.984,5.984,0,0,1-1.485-.178,2.5,2.5,0,0,1-1.188-.594,2.321,2.321,0,0,1-.832-1.01,3.932,3.932,0,0,1-.416-1.544v-.119H425v.119a4.647,4.647,0,0,0,.416,2.079,3.961,3.961,0,0,0,1.129,1.485,4.334,4.334,0,0,0,1.723.891,7.99,7.99,0,0,0,2.079.3,5.933,5.933,0,0,0,3.92-1.129,3.905,3.905,0,0,0,1.426-3.208,3.968,3.968,0,0,0-.356-1.782,3.355,3.355,0,0,0-1.01-1.188" transform="translate(-241.924 -304.717)" fill="#2a1747"/>
      <path id="Path_25" data-name="Path 25" d="M457.78,360.157a6.5,6.5,0,0,0-2.138-1.663,6.633,6.633,0,0,0-2.97-.594,6.233,6.233,0,0,0-5.049,2.257,7.425,7.425,0,0,0-1.307,2.435,10.815,10.815,0,0,0,0,5.94,7.426,7.426,0,0,0,1.307,2.435,6.5,6.5,0,0,0,2.138,1.663,7.722,7.722,0,0,0,5.94,0,6.5,6.5,0,0,0,2.138-1.663,6.875,6.875,0,0,0,1.307-2.435,10.815,10.815,0,0,0,0-5.94,8.883,8.883,0,0,0-1.366-2.435m.119,5.465a10.412,10.412,0,0,1-.3,2.376,5.037,5.037,0,0,1-.95,1.96,4.48,4.48,0,0,1-1.6,1.366,4.767,4.767,0,0,1-2.317.535,5.355,5.355,0,0,1-2.317-.475,4.48,4.48,0,0,1-1.6-1.366,6.684,6.684,0,0,1-.95-1.96,9.653,9.653,0,0,1,0-4.752,5.036,5.036,0,0,1,.95-1.96,4.48,4.48,0,0,1,1.6-1.366,4.767,4.767,0,0,1,2.317-.535,4.756,4.756,0,0,1,3.8,1.663,5.118,5.118,0,0,1,1.01,1.96,8.289,8.289,0,0,1,.356,2.554" transform="translate(-250.409 -304.676)" fill="#2a1747"/>
      <path id="Path_26" data-name="Path 26" d="M483.089,367.958a4.9,4.9,0,0,1-.594,1.544,3.127,3.127,0,0,1-.95,1.188,3.392,3.392,0,0,1-1.247.772,4.535,4.535,0,0,1-1.6.3,4.846,4.846,0,0,1-2.376-.535,3.816,3.816,0,0,1-1.485-1.426,6.871,6.871,0,0,1-.832-2.02,10.229,10.229,0,0,1-.238-2.317,10.41,10.41,0,0,1,.3-2.376,4.963,4.963,0,0,1,.891-1.96,5.437,5.437,0,0,1,1.485-1.366,4.069,4.069,0,0,1,2.138-.475,4.635,4.635,0,0,1,2.851.772,3.9,3.9,0,0,1,1.485,2.495v.119h1.663v-.178a6.725,6.725,0,0,0-.653-2.02,4.284,4.284,0,0,0-1.247-1.485,4.334,4.334,0,0,0-1.723-.891,7.988,7.988,0,0,0-2.079-.3,7.88,7.88,0,0,0-2.673.416,5.092,5.092,0,0,0-2.138,1.366,6.668,6.668,0,0,0-1.426,2.376,10.116,10.116,0,0,0-.535,3.5,11.493,11.493,0,0,0,.356,2.911,7.038,7.038,0,0,0,1.129,2.435,5.865,5.865,0,0,0,1.96,1.663,6.208,6.208,0,0,0,2.911.594,6.781,6.781,0,0,0,2.554-.416,5.676,5.676,0,0,0,1.841-1.129,5.821,5.821,0,0,0,1.247-1.663,11.018,11.018,0,0,0,.713-1.96l.059-.178h-1.723Z" transform="translate(-261.045 -304.635)" fill="#2a1747"/>
      <rect id="Rectangle_3" data-name="Rectangle 3" width="1.663" height="14.613" transform="translate(226.38 53.64)" fill="#2a1747"/>
      <path id="Path_27" data-name="Path 27" d="M509.862,358.6,504.1,373.213h1.723l1.663-4.515h6.3l1.663,4.515h1.723L511.585,358.6Zm-1.782,8.673,2.614-6.95,2.614,6.95Z" transform="translate(-274.037 -304.96)" fill="#2a1747"/>
      <path id="Path_28" data-name="Path 28" d="M523.6,360.026h4.515v13.187h1.663V360.026h4.515V358.6H523.6Z" transform="translate(-281.954 -304.96)" fill="#2a1747"/>
      <rect id="Rectangle_4" data-name="Rectangle 4" width="1.663" height="14.613" transform="translate(254.418 53.64)" fill="#2a1747"/>
      <path id="Path_29" data-name="Path 29" d="M564.58,360.157a6.5,6.5,0,0,0-2.138-1.663,6.633,6.633,0,0,0-2.97-.594,6.233,6.233,0,0,0-5.049,2.257,7.425,7.425,0,0,0-1.307,2.435,10.815,10.815,0,0,0,0,5.94,7.426,7.426,0,0,0,1.307,2.435,6.5,6.5,0,0,0,2.138,1.663,7.722,7.722,0,0,0,5.94,0,6.5,6.5,0,0,0,2.138-1.663,6.876,6.876,0,0,0,1.307-2.435,10.815,10.815,0,0,0,0-5.94,10.755,10.755,0,0,0-1.366-2.435m-2.97-.356a4.907,4.907,0,0,1,1.663,1.247,5.119,5.119,0,0,1,1.01,1.96,8.972,8.972,0,0,1,.356,2.614,10.412,10.412,0,0,1-.3,2.376,5.037,5.037,0,0,1-.95,1.96,4.48,4.48,0,0,1-1.6,1.366,4.767,4.767,0,0,1-2.317.535,5.84,5.84,0,0,1-2.376-.475,4.481,4.481,0,0,1-1.6-1.366,7.5,7.5,0,0,1-.95-1.96,9.653,9.653,0,0,1,0-4.752,5.036,5.036,0,0,1,.95-1.96,4.479,4.479,0,0,1,1.6-1.366,4.767,4.767,0,0,1,2.317-.535,4.41,4.41,0,0,1,2.2.356" transform="translate(-293.768 -304.676)" fill="#2a1747"/>
      <path id="Path_30" data-name="Path 30" d="M589.761,370.837,581.623,358.6H579.9v14.613h1.663V360.976l8.019,12.237h1.782V358.6h-1.6Z" transform="translate(-304.81 -304.96)" fill="#2a1747"/>
    </g>
  </g>
</svg>
