<?xml version="1.0" encoding="utf-8"?>
<!-- Generator: Adobe Illustrator 25.2.1, SVG Export Plug-In . SVG Version: 6.00 Build 0)  -->
<svg version="1.1" id="Layer_1" xmlns="http://www.w3.org/2000/svg" xmlns:xlink="http://www.w3.org/1999/xlink" x="0px" y="0px"
	 viewBox="0 0 2142 612" style="enable-background:new 0 0 2142 612;" xml:space="preserve">
<style type="text/css">
	.st0{fill:#68B513;stroke:#FFFFFF;stroke-width:5;stroke-miterlimit:10;}
	.st1{clip-path:url(#SVGID_2_);fill:#393939;}
	.st2{clip-path:url(#SVGID_4_);fill:#393939;}
	.st3{clip-path:url(#SVGID_6_);fill:#393939;}
	.st4{clip-path:url(#SVGID_8_);fill:#393939;}
	.st5{clip-path:url(#SVGID_10_);fill:#393939;}
	.st6{clip-path:url(#SVGID_12_);fill:#393939;}
</style>
<g>
	<path class="st0" d="M353.22,326.91c3.2-2.17,6.18-4.3,9.33-6.19c9.13-5.46,18.73-9.74,29.28-11.6c16.04-2.83,31.05,0.07,44.9,8.54
		c9,5.5,14.95,13.6,18.65,23.39c2.53,6.7,3.76,13.67,4.38,20.82c0.96,11.01-0.17,21.88-1.7,32.73
		c-2.62,18.59-7.22,36.71-13.39,54.43c-6.19,17.79-13.97,34.88-22.93,51.45c-5.44,10.07-11.33,19.86-17.71,29.37
		c-8.57,12.77-17.92,24.91-28.38,36.22c-10.48,11.33-21.98,21.43-34.97,29.78c-11.89,7.65-24.67,13.22-38.66,15.68
		c-17.44,3.07-34.23,0.7-50.44-6.29c-3.96-1.71-6.9-4.61-9.46-7.92c-5.38-6.98-8.96-14.93-12.09-23.09
		c-3.93-10.27-6.76-20.84-8.32-31.73c-0.8-5.56-1.2-11.13-0.28-16.72c0.29-1.75,0.82-3.43,1.9-4.87c1.77-2.38,3.91-2.43,5.71-0.09
		c1.77,2.3,2.82,5.01,4.01,7.63c1.66,3.64,3.24,7.31,5.57,10.6c3.19,4.52,7.61,6.59,13.04,6.97c7.81,0.55,14.82-1.94,21.58-5.43
		c9.45-4.89,17.72-11.42,25.65-18.44c4.2-3.72,8.18-7.65,12.07-11.67c11.04-11.39,21.05-23.65,30.34-36.49
		c6.99-9.66,13.49-19.65,19.38-30.02c3.76-6.61,7.05-13.46,10.1-20.42c5.66-12.89,11.21-25.83,15.54-39.24
		c1.72-5.33,3.16-10.74,3.85-16.32c0.33-2.63,0.44-5.26-0.26-7.86c-0.98-3.61-3.33-5.43-7.08-5.69c-4.41-0.3-8.36,1.08-12.16,3.08
		c-4.91,2.58-9.31,5.92-13.54,9.47c-9.35,7.83-17.56,16.78-25.6,25.91c-12.75,14.48-24.57,29.7-36,45.22
		c-12.25,16.62-24,33.57-35.12,50.97c-1.81,2.84-3.68,5.62-6.52,7.59c-3.31,2.3-6.9,3.26-10.9,2.51c-0.94-0.18-1.89-0.36-2.8-0.64
		c-5.55-1.74-8.08-4.98-8.65-10.77c-0.53-5.49-1.24-10.96-1.76-16.45c-0.44-4.69-0.8-9.4-1.04-14.11
		c-0.7-13.5-0.84-27.02-0.43-40.53c0.35-11.34,1.11-22.66,2.14-33.97c2.8-30.81,8.17-61.17,16-91.08
		c7.18-27.44,16.43-54.17,27.78-80.17c11.7-26.81,25.46-52.51,41.3-77.11c10.53-16.36,21.88-32.13,34.07-47.28
		c8.52-10.59,17.4-20.88,26.68-30.83c5.29-5.67,10.61-11.33,16.13-16.77c10.76-10.61,21.74-21,33.32-30.73
		c2.63-2.21,5.22-4.48,7.84-6.7c0.58-0.49,1.16-1.36,2.02-0.85c0.69,0.41,0.44,1.31,0.39,2.01c-0.72,11.48-1.52,22.96-2.64,34.42
		c-3.22,32.66-8.36,65.02-15.09,97.12c-5.29,25.22-11.67,50.16-19.17,74.81c-7.36,24.2-15.81,48.01-25.46,71.39
		c-5,12.13-10.33,24.11-16.1,35.9c-1.37,2.8-2.71,5.62-4.05,8.44C353.29,325.68,352.95,326.07,353.22,326.91z"/>
	<path class="st0" d="M122.95,110.59c1.14,0.39,1.71,1.3,2.37,2.06c15.5,17.79,28.99,36.99,40.44,57.63
		c9.92,17.88,18.15,36.5,24.95,55.78c8.68,24.59,14.71,49.83,18.75,75.57c1.78,11.37,3.11,22.8,4.02,34.28
		c0.68,8.61,1.11,17.22,1.5,25.85c0.47,10.56,0.45,21.11,0.19,31.66c-0.19,7.98-0.56,15.97-1.14,23.94
		c-0.59,8.13-1.26,16.26-2.15,24.36c-1.14,10.33-2.55,20.63-4.37,30.86c-0.94,5.27-1.84,10.56-3.09,15.77
		c-0.11,0.47-0.17,0.95-0.33,1.4c-0.24,0.68-0.7,0.88-1.27,0.36c-0.41-0.37-0.78-0.8-1.14-1.23
		c-10.36-12.77-19.29-26.49-27.11-40.95c-12.41-22.97-21.74-47.18-29.16-72.16c-6.98-23.5-12.11-47.41-15.98-71.59
		c-1.94-12.08-3.57-24.2-4.81-36.37c-1.01-9.94-1.95-19.88-2.59-29.85c-0.6-9.41-1.08-18.83-1.49-28.25
		c-0.25-5.76-0.23-11.51-0.4-17.26c-0.19-6.15-0.45-12.3-0.33-18.46c0.16-8.71,0.2-17.43,0.5-26.14c0.32-9.1,0.86-18.2,1.41-27.29
		c0.14-2.31,0.36-4.62,0.49-6.93C122.26,112.6,122.29,111.55,122.95,110.59z"/>
	<path class="st0" d="M1.28,434.72c2.25-0.87,4.61-0.8,6.88-0.99c9.72-0.81,19.46-1.3,29.22-1.01c12.72,0.38,25.35,1.66,37.88,3.96
		c17.78,3.26,34.93,8.57,51.45,15.9c18.82,8.35,36.21,19.04,52.11,32.14c5.5,4.53,10.78,9.28,15.74,14.41
		c1.44,1.49,2.81,3.06,4.19,4.62c0.35,0.4,0.93,0.77,0.6,1.42c-0.25,0.48-0.8,0.48-1.27,0.52c-2.07,0.16-4.14,0.43-6.22,0.45
		c-6.32,0.06-12.65,0.25-18.95-0.04c-9.82-0.46-19.59-1.62-29.27-3.41c-23.89-4.41-46.71-12.1-68.75-22.24
		c-23.41-10.77-45.42-23.88-66.13-39.18c-2.25-1.66-4.42-3.43-6.62-5.16C1.76,435.81,1.3,435.58,1.28,434.72z"/>
</g>
<g>
	<defs>
		<path id="SVGID_1_" d="M1008.89,282.32c10.36,10.44,18.24,22.35,23.69,35.73c5.43,13.38,8.17,27.43,8.17,42.14v100.35L1010.46,434
			c0,0-8.75,10.15-15.12,15.1c-6.37,4.95-13.08,8.97-20.11,12.04c-7.03,3.07-14.28,5.28-21.7,6.62c-7.44,1.34-14.61,2.01-21.51,2.01
			c-14.61,0-28.54-2.81-41.81-8.43c-13.28-5.62-24.95-13.51-35.04-23.68c-10.36-10.44-18.25-22.35-23.7-35.73
			c-5.44-13.38-8.17-27.29-8.17-41.75c0-14.7,2.73-28.76,8.17-42.14c5.44-13.38,13.34-25.29,23.7-35.73
			c10.08-10.17,21.76-18.06,35.04-23.68c13.27-5.62,27.2-8.43,41.81-8.43c14.6,0,28.53,2.81,41.81,8.43
			C987.11,264.26,998.79,272.15,1008.89,282.32 M932.03,441.67c11.16,0,21.64-2.14,31.46-6.42c9.82-4.28,18.38-10.1,25.68-17.46
			c7.31-7.36,13.07-15.99,17.32-25.89c4.25-9.89,6.38-20.47,6.38-31.72c0-11.23-2.13-21.87-6.38-31.9
			c-4.25-10.04-10.01-18.72-17.32-26.09c-7.3-7.36-15.86-13.18-25.68-17.46c-9.82-4.28-20.3-6.42-31.46-6.42
			c-11.15,0-21.64,2.14-31.46,6.42c-9.82,4.28-18.39,10.1-25.68,17.46c-7.31,7.37-13.07,16.05-17.32,26.09
			c-4.25,10.03-6.37,20.67-6.37,31.9c0,11.25,2.12,21.82,6.37,31.72c4.25,9.9,10.02,18.53,17.32,25.89
			c7.29,7.36,15.86,13.18,25.68,17.46C910.39,439.53,920.88,441.67,932.03,441.67"/>
	</defs>
	<use xlink:href="#SVGID_1_"  style="overflow:visible;fill:#393939;"/>
	<clipPath id="SVGID_2_">
		<use xlink:href="#SVGID_1_"  style="overflow:visible;"/>
	</clipPath>
	<rect x="808.31" y="235.21" class="st1" width="247.43" height="249.56"/>
</g>
<g>
	<defs>
		<path id="SVGID_3_" d="M1373.6,339.31c0-8.56-1.67-16.58-4.98-24.07c-3.32-7.5-7.76-14.06-13.33-19.67
			c-5.57-5.62-12.09-10.04-19.51-13.25c-7.44-3.21-15.41-4.82-23.9-4.82c-8.23,0-16.06,1.54-23.49,4.61
			c-7.44,3.09-13.94,7.43-19.51,13.05c-5.57,5.62-10.02,12.18-13.33,19.67c-3.32,7.49-5.12,15.66-5.38,24.48v121.22h-27.88V339.31
			c-0.53-8.82-2.45-16.99-5.78-24.48c-3.32-7.48-7.76-14.05-13.33-19.67c-5.57-5.62-12.01-9.96-19.31-13.05
			c-7.31-3.07-15.07-4.61-23.3-4.61c-8.49,0-16.46,1.61-23.88,4.82c-7.44,3.21-13.94,7.62-19.52,13.25
			c-5.57,5.62-9.96,12.17-13.14,19.67c-3.18,7.49-4.77,15.52-4.77,24.07v121.22h-27.89V249.74l27.89,24.15
			c8.21-8.03,17.58-14.11,28.06-18.27c10.48-4.14,21.57-6.22,33.25-6.22c11.95,0,23.36,2.21,34.26,6.63
			c10.88,4.41,20.56,10.9,29.06,19.47c4.51,4.55,8.62,9.76,12.35,15.64c3.71-5.88,7.83-11.1,12.35-15.64
			c8.49-8.57,18.18-15.06,29.07-19.47c10.87-4.42,22.3-6.63,34.23-6.63c11.95,0,23.36,2.21,34.26,6.63
			c10.87,4.41,20.56,10.9,29.07,19.47c8.49,8.56,14.99,18.32,19.51,29.3c4.51,10.97,6.77,22.47,6.77,34.51v121.22h-27.87V339.31z"/>
	</defs>
	<use xlink:href="#SVGID_3_"  style="overflow:visible;fill:#393939;"/>
	<clipPath id="SVGID_4_">
		<use xlink:href="#SVGID_3_"  style="overflow:visible;"/>
	</clipPath>
	<rect x="1056.36" y="234.4" class="st2" width="360.11" height="241.13"/>
</g>
<g>
	<defs>
		<path id="SVGID_5_" d="M1787.02,469.77c-14.61,0-28.48-2.81-41.61-8.43c-13.15-5.63-24.89-13.51-35.24-23.68
			c-10.1-10.44-17.92-22.34-23.5-35.73c-5.58-13.38-8.37-27.3-8.37-41.75c0-14.71,2.79-28.76,8.37-42.14
			c5.57-13.38,13.4-25.29,23.5-35.73c10.34-10.17,22.09-18.06,35.24-23.68c13.14-5.62,27.01-8.43,41.61-8.43
			c14.59,0,28.53,2.81,41.81,8.43c13.27,5.62,25.08,13.51,35.43,23.68c10.1,10.44,17.92,22.35,23.49,35.73
			c5.58,13.37,8.37,27.43,8.37,42.14c0,14.45-2.79,28.37-8.37,41.75c-5.57,13.38-13.4,25.29-23.49,35.73
			c-10.35,10.17-22.17,18.05-35.43,23.68C1815.55,466.96,1801.62,469.77,1787.02,469.77 M1787.02,278.31
			c-11.15,0-21.64,2.14-31.45,6.42c-9.82,4.28-18.4,10.1-25.69,17.46c-7.31,7.37-13.08,16.05-17.32,26.09
			c-4.25,10.04-6.36,20.67-6.36,31.91c0,11.25,2.11,21.82,6.36,31.72c4.25,9.9,10.02,18.53,17.32,25.89
			c7.29,7.36,15.87,13.18,25.69,17.46c9.81,4.28,20.31,6.42,31.45,6.42c11.16,0,21.64-2.14,31.45-6.42
			c9.82-4.28,18.45-10.1,25.89-17.46c7.42-7.36,13.27-15.99,17.52-25.89c4.24-9.9,6.37-20.47,6.37-31.72
			c0-11.24-2.13-21.87-6.37-31.91c-4.25-10.04-10.09-18.72-17.52-26.09c-7.44-7.36-16.07-13.18-25.89-17.46
			C1808.66,280.45,1798.18,278.31,1787.02,278.31"/>
	</defs>
	<use xlink:href="#SVGID_5_"  style="overflow:visible;fill:#393939;"/>
	<clipPath id="SVGID_6_">
		<use xlink:href="#SVGID_5_"  style="overflow:visible;"/>
	</clipPath>
	<rect x="1663.31" y="235.21" class="st3" width="247.82" height="249.56"/>
</g>
<g>
	<defs>
		<path id="SVGID_7_" d="M2032.71,469.77c-14.62,0-28.49-2.81-41.62-8.43c-13.14-5.63-24.89-13.51-35.24-23.68
			c-10.08-10.44-17.92-22.34-23.49-35.73c-5.58-13.38-8.36-27.3-8.36-41.75c0-14.71,2.79-28.76,8.36-42.14
			c5.57-13.38,13.42-25.29,23.49-35.73c10.35-10.17,22.1-18.06,35.24-23.68c13.14-5.62,27.01-8.43,41.62-8.43
			c14.58,0,28.53,2.81,41.81,8.43c13.27,5.62,25.08,13.51,35.43,23.68c10.1,10.44,17.92,22.35,23.49,35.73
			c5.58,13.37,8.36,27.43,8.36,42.14c0,14.45-2.78,28.37-8.36,41.75c-5.57,13.38-13.4,25.29-23.49,35.73
			c-10.35,10.17-22.16,18.05-35.43,23.68C2061.24,466.96,2047.29,469.77,2032.71,469.77 M2032.71,278.31
			c-11.16,0-21.64,2.14-31.46,6.42c-9.82,4.28-18.4,10.1-25.68,17.46c-7.3,7.37-13.07,16.05-17.32,26.09
			c-4.25,10.04-6.37,20.67-6.37,31.91c0,11.25,2.12,21.82,6.37,31.72c4.25,9.9,10.02,18.53,17.32,25.89
			c7.29,7.36,15.87,13.18,25.68,17.46c9.82,4.28,20.31,6.42,31.46,6.42c11.15,0,21.63-2.14,31.45-6.42
			c9.82-4.28,18.45-10.1,25.9-17.46c7.42-7.36,13.27-15.99,17.51-25.89c4.25-9.9,6.37-20.47,6.37-31.72
			c0-11.24-2.12-21.87-6.37-31.91c-4.24-10.04-10.09-18.72-17.51-26.09c-7.44-7.36-16.07-13.18-25.9-17.46
			C2054.34,280.45,2043.86,278.31,2032.71,278.31"/>
	</defs>
	<use xlink:href="#SVGID_7_"  style="overflow:visible;fill:#393939;"/>
	<clipPath id="SVGID_8_">
		<use xlink:href="#SVGID_7_"  style="overflow:visible;"/>
	</clipPath>
	<rect x="1908.99" y="235.21" class="st4" width="247.81" height="249.56"/>
</g>
<g>
	<defs>
		<path id="SVGID_9_" d="M1463.89,437.66c-10.36-10.44-18.27-22.34-23.7-35.73c-5.45-13.38-8.16-27.42-8.16-42.14V167.52L1459.9,144
			v142.74c0.8-1.07,2.12-2.55,3.99-4.42c10.07-10.17,21.76-18.06,35.04-23.68c13.27-5.62,27.21-8.43,41.81-8.43
			c14.6,0,28.53,2.81,41.81,8.43c13.27,5.62,24.95,13.51,35.03,23.68c10.36,10.44,18.26,22.35,23.7,35.73
			c5.44,13.37,8.15,27.29,8.15,41.74c0,14.71-2.72,28.76-8.15,42.14c-5.44,13.38-13.34,25.29-23.7,35.73
			c-10.08,10.17-21.77,18.05-35.03,23.68c-13.28,5.62-27.21,8.43-41.81,8.43c-14.6,0-28.54-2.81-41.81-8.43
			C1485.65,455.71,1473.97,447.83,1463.89,437.66 M1540.74,278.31c-11.15,0-21.64,2.14-31.46,6.42
			c-9.82,4.28-18.38,10.1-25.68,17.46c-7.3,7.37-13.08,15.99-17.32,25.89c-4.25,9.91-6.37,20.47-6.37,31.72
			c0,11.24,2.12,21.87,6.37,31.9c4.25,10.04,10.02,18.73,17.32,26.09c7.3,7.36,15.86,13.18,25.68,17.46
			c9.82,4.28,20.31,6.42,31.46,6.42c11.15,0,21.63-2.14,31.45-6.42c9.82-4.28,18.38-10.1,25.69-17.46
			c7.29-7.36,13.06-16.06,17.32-26.09c4.24-10.03,6.36-20.67,6.36-31.9c0-11.25-2.12-21.81-6.36-31.72
			c-4.26-9.89-10.03-18.52-17.32-25.89c-7.31-7.36-15.87-13.18-25.69-17.46C1562.37,280.45,1551.89,278.31,1540.74,278.31"/>
	</defs>
	<use xlink:href="#SVGID_9_"  style="overflow:visible;fill:#393939;"/>
	<clipPath id="SVGID_10_">
		<use xlink:href="#SVGID_9_"  style="overflow:visible;"/>
	</clipPath>
	<rect x="1417.03" y="129" class="st5" width="247.41" height="355.77"/>
</g>
<g>
	<defs>
		<path id="SVGID_11_" d="M607.86,437.66c-10.36-10.44-18.26-22.34-23.69-35.73c-5.45-13.38-8.16-27.42-8.16-42.14V167.52
			L603.87,144v142.74c0.79-1.07,2.12-2.55,3.99-4.42c10.08-10.17,21.76-18.06,35.04-23.68c13.27-5.62,27.21-8.43,41.81-8.43
			c14.59,0,28.53,2.81,41.81,8.43c13.27,5.62,24.95,13.51,35.03,23.68c10.36,10.44,18.26,22.35,23.7,35.73
			c5.44,13.37,8.16,27.29,8.16,41.74c0,14.71-2.72,28.76-8.16,42.14c-5.44,13.38-13.35,25.29-23.7,35.73
			c-10.08,10.17-21.76,18.05-35.03,23.68c-13.28,5.62-27.21,8.43-41.81,8.43c-14.6,0-28.54-2.81-41.81-8.43
			C629.62,455.71,617.94,447.83,607.86,437.66 M684.71,278.31c-11.15,0-21.64,2.14-31.46,6.42c-9.83,4.28-18.38,10.1-25.68,17.46
			c-7.31,7.37-13.08,15.99-17.33,25.89c-4.25,9.91-6.37,20.47-6.37,31.72c0,11.24,2.12,21.87,6.37,31.9
			c4.25,10.04,10.02,18.73,17.33,26.09c7.3,7.36,15.86,13.18,25.68,17.46c9.82,4.28,20.31,6.42,31.46,6.42
			c11.15,0,21.63-2.14,31.45-6.42c9.82-4.28,18.38-10.1,25.69-17.46c7.29-7.36,13.06-16.06,17.32-26.09
			c4.25-10.03,6.37-20.67,6.37-31.9c0-11.25-2.12-21.81-6.37-31.72c-4.25-9.89-10.03-18.52-17.32-25.89
			c-7.31-7.36-15.87-13.18-25.69-17.46C706.34,280.45,695.86,278.31,684.71,278.31"/>
	</defs>
	<use xlink:href="#SVGID_11_"  style="overflow:visible;fill:#393939;"/>
	<clipPath id="SVGID_12_">
		<use xlink:href="#SVGID_11_"  style="overflow:visible;"/>
	</clipPath>
	<rect x="561" y="129" class="st6" width="247.41" height="355.77"/>
</g>
</svg>
