<?xml version="1.0" encoding="UTF-8"?>
<svg width="152px" height="52px" viewBox="0 0 152 52" version="1.1" xmlns="http://www.w3.org/2000/svg" xmlns:xlink="http://www.w3.org/1999/xlink">
    <!-- Generator: sketchtool 63.1 (101010) - https://sketch.com -->
    <title>5F5000A9-313B-4FC8-A961-804CF3F43971</title>
    <desc>Created with sketchtool.</desc>
    <defs>
        <linearGradient x1="57.3661377%" y1="16.3500721%" x2="83.7122195%" y2="59.0362178%" id="linearGradient-1">
            <stop stop-color="#FF177B" offset="0%"></stop>
            <stop stop-color="#FFEC73" offset="100%"></stop>
        </linearGradient>
        <linearGradient x1="49.5663565%" y1="-44.0352456%" x2="48.3188238%" y2="101.060094%" id="linearGradient-2">
            <stop stop-color="#064AA2" offset="0%"></stop>
            <stop stop-color="#63FFD4" offset="100%"></stop>
        </linearGradient>
        <linearGradient x1="46.2281198%" y1="22.2769931%" x2="35.3769379%" y2="65.0532849%" id="linearGradient-3">
            <stop stop-color="#064AA2" offset="0%"></stop>
            <stop stop-color="#63FFD4" offset="100%"></stop>
        </linearGradient>
        <path d="M12.5858178,11.5454545 L0.452727259,0 C0.169662487,0.0660169866 0,0.278602726 0,0.636363636 L0,11.5454545 L0,22.7272727 C0,23.0308061 0.121871604,23.211401 0.271636355,23.2727273 L12.5858178,11.5454545 L12.5858178,11.5454545 Z" id="path-4"></path>
        <path d="M0.501112082,11.7077453 L7.51404542,7.83982591 C9.24099836,6.87905353 10.6115513,6.11655391 10.6115513,6.11655391 L15.7114648,3.35860649 L12.3161761,0.0461786228 L0.00213837148,11.7749106 C0.139389696,11.8192298 0.381299215,11.7950049 0.570027308,11.7014835" id="path-6"></path>
        <linearGradient x1="73.5574777%" y1="50%" x2="10.9327361%" y2="91.4501952%" id="linearGradient-8">
            <stop stop-color="#FF4521" offset="0%"></stop>
            <stop stop-color="#8A33DB" offset="100%"></stop>
        </linearGradient>
        <linearGradient x1="44.2700739%" y1="8.27018521%" x2="51.6300995%" y2="78.125%" id="linearGradient-9">
            <stop stop-color="#00A3B5" offset="0%"></stop>
            <stop stop-color="#D6FFA1" offset="100%"></stop>
        </linearGradient>
        <linearGradient x1="22.3031599%" y1="8.57471551%" x2="57.8794393%" y2="77.9197531%" id="linearGradient-10">
            <stop stop-color="#00A3B5" offset="0%"></stop>
            <stop stop-color="#D6FFA1" offset="100%"></stop>
        </linearGradient>
        <path d="M0.736046135,0.195170387 C0.502473894,0.0695724701 0.270401916,0.033643415 0.0826711584,0.0844234609 L12.2258351,11.646673 L15.5853143,8.45472868 L10.5213815,5.63841437 C10.5213815,5.63841437 5.74846061,2.98337482 2.86654294,1.38020943 L0.736046135,0.195170387 L0.736046135,0.195170387 Z" id="path-11"></path>
    </defs>
    <g id="Page-1" stroke="none" stroke-width="1" fill="none" fill-rule="evenodd">
        <g id="Homepage_v3" transform="translate(-240.000000, -7385.000000)">
            <g id="Group-35" transform="translate(-2.000000, 7145.000000)">
                <g id="icn_google_play" transform="translate(243.000000, 241.000000)">
                    <rect id="background" stroke="#FFFFFF" stroke-width="0.833333333" fill="#000000" x="0" y="0" width="150" height="50" rx="4.25531915"></rect>
                    <g id="icon" transform="translate(7.000000, 14.000000)">
                        <path d="M10.8816847,5.63841437 C10.8816847,5.63841437 1.65461481,0.505658915 1.11269465,0.204105004 C0.569872785,-0.0974489073 0.0297560156,0.0854756871 0.0297560156,0.715750528 L0.0297560156,11.6731149 L0.0297560156,22.8532487 C0.0297560156,23.3250494 0.415682522,23.5297075 0.887270285,23.2679985 C1.35795635,23.0062896 10.8816847,17.7078154 10.8816847,17.7078154 C10.8816847,17.7078154 12.1754667,16.9885078 12.8223576,16.6288541 C13.8634444,16.0500383 15.9456176,14.8924066 15.9456176,14.8924066 C15.9456176,14.8924066 20.2422059,12.5017089 20.8138821,12.1847604 C21.3846566,11.8669063 21.3296531,11.4313284 20.8481466,11.1804863 C20.3657385,10.9305497 15.9456176,8.45472868 15.9456176,8.45472868 L10.8816847,5.63841437 L10.8816847,5.63841437 Z" id="orange" fill="url(#linearGradient-1)"></path>
                        <g id="blue" transform="translate(0.000000, 0.090909)">
                            <g id="mask-4" fill="#FFFFFF">
                                <path d="M12.5858178,11.5454545 L0.452727259,0 C0.169662487,0.0660169866 0,0.278602726 0,0.636363636 L0,11.5454545 L0,22.7272727 C0,23.0308061 0.121871604,23.211401 0.271636355,23.2727273 L12.5858178,11.5454545 L12.5858178,11.5454545 Z" id="path-3"></path>
                            </g>
                            <g id="Clip-2" fill="url(#linearGradient-3)">
                                <path d="M12.5858178,11.5454545 L0.452727259,0 C0.169662487,0.0660169866 0,0.278602726 0,0.636363636 L0,11.5454545 L0,22.7272727 C0,23.0308061 0.121871604,23.211401 0.271636355,23.2727273 L12.5858178,11.5454545 L12.5858178,11.5454545 Z" id="path-3"></path>
                            </g>
                            <g id="Fill-1-Clipped">
                                <mask id="mask-5" fill="white">
                                    <use xlink:href="#path-4"></use>
                                </mask>
                                <g id="path-3"></g>
                            </g>
                        </g>
                        <g id="red" transform="translate(0.270133, 11.591261)">
                            <g id="mask-6" fill="#FFFFFF">
                                <path d="M0.501112082,11.7077453 L7.51404542,7.83982591 C9.24099836,6.87905353 10.6115513,6.11655391 10.6115513,6.11655391 L15.7114648,3.35860649 L12.3161761,0.0461786228 L0.00213837148,11.7749106 C0.139389696,11.8192298 0.381299215,11.7950049 0.570027308,11.7014835" id="path-5"></path>
                            </g>
                            <g id="Fill-7-Clipped">
                                <mask id="mask-7" fill="white">
                                    <use xlink:href="#path-6"></use>
                                </mask>
                                <g id="path-5"></g>
                                <path d="M10.5953207,-5.95489782 C10.577563,-5.91388945 1.35409158,-11.0560722 0.816411894,-11.3185342 C0.2697726,-11.6602877 -0.270133526,-11.4770271 -0.270133526,-10.8639887 L-0.270133526,0.136011276 C-0.270133526,0.13189488 -0.270133526,10.8589888 -0.270133526,11.3178295 C-0.270133526,11.8052303 0.115642471,12.0102644 0.544775539,11.7723749 C1.05754882,11.4858851 10.577563,6.17767921 10.5953207,6.13601127 L15.665866,3.31782945 C15.639521,3.35709945 19.9344337,0.962010825 20.464775,0.681465821 C21.0764387,0.326042216 21.0214566,-0.110335675 20.5553204,-0.318534179 C20.057918,-0.612034165 15.639521,-3.09240246 15.665866,-3.136716 L10.5953207,-5.95489782 L10.5953207,-5.95489782 Z" id="Fill-7" fill="url(#linearGradient-8)" mask="url(#mask-7)"></path>
                            </g>
                        </g>
                        <g id="green" transform="translate(0.360303, 0.000000)">
                            <g id="mask-10" fill="#FFFFFF">
                                <path d="M0.736046135,0.195170387 C0.502473894,0.0695724701 0.270401916,0.033643415 0.0826711584,0.0844234609 L12.2258351,11.646673 L15.5853143,8.45472868 L10.5213815,5.63841437 C10.5213815,5.63841437 5.74846061,2.98337482 2.86654294,1.38020943 L0.736046135,0.195170387 L0.736046135,0.195170387 Z" id="path-9"></path>
                            </g>
                            <g id="Clip-5" fill="url(#linearGradient-10)">
                                <path d="M0.736046135,0.195170387 C0.502473894,0.0695724701 0.270401916,0.033643415 0.0826711584,0.0844234609 L12.2258351,11.646673 L15.5853143,8.45472868 L10.5213815,5.63841437 C10.5213815,5.63841437 5.74846061,2.98337482 2.86654294,1.38020943 L0.736046135,0.195170387 L0.736046135,0.195170387 Z" id="path-9"></path>
                            </g>
                            <g id="Fill-4-Clipped">
                                <mask id="mask-12" fill="white">
                                    <use xlink:href="#path-11"></use>
                                </mask>
                                <g id="path-9"></g>
                                <path d="M15.5756962,5.45454545 L10.5051509,2.63636364 C10.4873933,2.677372 1.26392184,-2.46481071 0.72624215,-2.72727273 C0.179602856,-3.06902625 -0.36030327,-2.88576568 -0.36030327,-2.27272727 L-0.36030327,8.72727273 C-0.36030327,8.72315636 -0.36030327,19.4502503 -0.36030327,19.9090909 C-0.36030327,20.3964917 0.0254727265,20.6015258 0.454605795,20.3636364 C0.967379074,20.0771465 10.4873933,14.7689406 10.5051509,14.7272727 L15.5756962,11.9090909 C15.5493512,11.9483609 19.8442639,9.55327227 20.3746052,9.27272727 C20.986269,8.91730364 20.9312869,8.48092582 20.4651506,8.27272727 C19.9677482,7.97922727 15.5493512,5.49885899 15.5756962,5.45454545" id="Fill-4" mask="url(#mask-12)"></path>
                            </g>
                        </g>
                    </g>
                    <path d="M87.213383,21.8 L85.7226509,22.639776 L84.2774269,22.639776 C84.8118013,23.0782492 85.9267475,24.0088862 85.9267475,25.7737925 C85.9267475,27.4939566 84.9552204,28.3048223 83.9754192,29.0723225 C83.6747905,29.3745042 83.3231377,29.7021545 83.3231377,30.2087734 C83.3231377,30.7229641 83.6747905,31.0017422 83.9278426,31.2096212 L84.7683618,31.8573501 C85.7902234,32.7184646 86.7217586,33.5079918 86.7217586,35.1118262 C86.7217586,37.2966205 84.6035676,39.5 80.6009314,39.5 C77.2292017,39.5 75.5991875,37.8968539 75.5991875,36.1780664 C75.5991875,35.3417321 76.0163443,34.1570973 77.3926168,33.3455433 C78.8350828,32.4651552 80.7891691,32.3474489 81.8358532,32.2786148 C81.509023,31.8573501 81.1359953,31.4161235 81.1359953,30.6961188 C81.1359953,30.3023878 81.2545919,30.0676635 81.3690515,29.7909505 C81.1146203,29.8150424 80.8581206,29.8398227 80.6250645,29.8398227 C78.1572892,29.8398227 76.7623998,28.0019522 76.7623998,26.1909271 C76.7623998,25.1226219 77.2505767,23.9372987 78.2531319,23.0782492 C79.5797593,21.9879171 81.1615073,21.8 82.4184937,21.8 L87.213383,21.8 Z M82.1003399,32.9 C81.8876401,32.9 80.6204778,32.9462503 79.6390004,33.2784116 C79.1197627,33.4697197 77.6190476,34.0352348 77.6190476,35.7149619 C77.6190476,37.3911851 79.2393194,38.6 81.7458403,38.6 C83.9979555,38.6 85.1935229,37.5117163 85.1935229,36.0464224 C85.1935229,34.8404106 84.4198796,34.2041185 82.6404305,32.9252274 C82.4478885,32.9 82.3325024,32.9 82.1003399,32.9 Z M133.776598,21.7 L137.770421,31.2081173 L141.72547,21.7 L143.062514,21.7 L137.384056,34.974525 C136.794816,36.3422533 135.867678,37 134.594335,37 C134.212124,37 133.708049,36.9326445 133.413083,36.8426081 L133.615959,35.7601096 C133.868689,35.8721396 134.30006,35.9408697 134.573563,35.9408697 C135.296439,35.9408697 135.799821,35.6473923 136.251965,34.6109429 L137.114016,32.6720677 L132.458249,21.7 L133.776598,21.7 Z M112.707585,21.5 C115.638353,21.5 117.612277,23.7064268 117.612277,27.1991916 C117.612277,30.6685934 115.638353,32.921059 112.707585,32.921059 C111.165002,32.921059 109.783048,32.1315279 108.896825,30.8939774 L108.896825,36.8 L107.714963,36.8 L107.714963,21.7714228 L108.896825,21.7714228 L108.896825,23.4831043 C109.666731,22.3767987 111.073611,21.5 112.707585,21.5 Z M43.8681028,16.8333333 C45.0526909,16.8333333 46.1921717,17.0069126 47.2303345,17.2890655 C48.8757114,17.7496385 49.645312,18.3174019 50.1262256,18.6500379 L48.3025012,20.3761494 L47.5335945,20.547654 L48.0818222,19.6769913 C47.339286,18.9543204 45.9742685,17.6203184 43.3837194,17.6203184 C39.9201697,17.6203184 37.3074139,20.2440631 37.3074139,24.0745644 C37.3074139,28.1886015 40.2907439,32.0585212 45.0755916,32.0585212 C46.4815526,32.0585212 47.2053519,31.7770599 47.8625312,31.5142705 L47.8625312,27.9873602 L44.5474887,28.1650888 L46.3045931,27.2245794 L50.9568946,27.2245794 L50.3878482,27.7702132 C50.2344833,27.9002248 50.2136645,27.944484 50.170639,28.1187549 C50.1477384,28.3179216 50.1262256,28.9513824 50.1262256,29.1740618 L50.1262256,31.8413742 L46.9867548,32.5578211 C45.7147279,32.7576793 44.5724713,32.9333333 43.3629006,32.9333333 C37.3074139,32.9333333 35,28.4915009 35,25.0150738 C35,20.7696419 38.2692411,16.8333333 43.8681028,16.8333333 Z M127.025158,21.5 C128.321062,21.5 129.369763,21.8095648 130.160119,22.4273124 C130.949778,23.0388411 131.346,23.9226209 131.346,25.077961 L131.346,30.4746151 C131.346,30.8622621 131.364802,31.2367802 131.413546,31.6016244 C131.463683,31.9671597 131.543763,32.3320039 131.650305,32.6851012 L130.280587,32.6851012 C130.201203,32.3057462 130.141317,31.9713056 130.097447,31.6921445 C130.061237,31.4136744 130.040347,31.1289853 130.040347,30.8394593 C129.632983,31.4330222 129.05571,31.9270821 128.318277,32.316111 C127.580147,32.707904 126.878924,32.9 125.917267,32.9 C124.759239,32.9 123.860253,32.6173839 123.218916,32.0438599 C122.579668,31.4710268 122.257955,30.6950418 122.257955,29.713141 C122.257955,28.7326221 122.723813,27.9365984 123.652742,27.3278337 C124.58167,26.716305 125.782175,26.4122682 127.268183,26.4122682 L130.040347,26.4122682 L130.040347,25.0530852 C130.040347,24.2701903 129.771556,23.6545157 129.234671,23.2081343 C128.695698,22.761062 127.939463,22.5351073 126.959004,22.5351073 C126.062804,22.5351073 125.335816,22.7417142 124.782219,23.143872 C124.233496,23.5543217 123.957046,24.0628925 123.957046,24.6758031 L122.740525,24.6758031 L122.715456,24.6170687 C122.671586,23.7906413 123.052489,23.0657898 123.862342,22.4397503 C124.668714,21.8144018 125.725075,21.5 127.025158,21.5 Z M97.8233364,21.5 C98.664536,21.5 99.528602,21.7097973 100.231218,22.1521659 C101.399474,22.9216526 101.701586,23.9216403 101.869271,24.4571754 L96.3723708,26.6690184 L94.5721759,26.8084232 C95.1549179,29.7690492 97.1657594,31.4909052 99.38794,31.4909052 C100.497991,31.4909052 101.321868,31.129971 102.077839,30.7579949 C102.077839,30.7579949 102.229587,30.679321 102.121493,30.7869801 L101.003127,31.8380368 L100.487854,32.1304955 C100.402215,32.1773472 100.316678,32.221515 100.231218,32.2603919 C99.45446,32.6116643 98.664536,32.7 97.9626124,32.7 C97.2156493,32.7 96.0446218,32.6516914 94.850035,31.7911085 C93.1905019,30.6268716 92.4650192,28.6255161 92.4650192,26.8815762 C92.4650192,23.2708546 95.4161472,21.5 97.8233364,21.5 Z M70.1252561,21.5 C73.553268,21.5 75.7001805,24.1920478 75.7001805,27.0185593 C75.7001805,29.7792252 73.5781437,32.7 69.7756141,32.7 C66.0691325,32.7 64.0859851,29.8048704 64.0859851,27.18352 C64.0859851,24.1206572 66.5790847,21.5 70.1252561,21.5 Z M57.7049416,21.5 C61.132308,21.5 63.2780411,24.1920478 63.2780411,27.0185593 C63.2780411,29.7792252 61.1578852,32.7 57.3530801,32.7 C53.6443629,32.7 51.6638456,29.8048704 51.6638456,27.18352 C51.6638456,24.1206572 54.1586752,21.5 57.7049416,21.5 Z M120.440081,17.6 L120.440081,32.7 L119.228165,32.7 L119.228165,17.6 L120.440081,17.6 Z M91.6864446,16 C90.9640276,16.4171942 90.747855,16.6712283 90.6553084,17.484275 L90.6497832,30.660314 C90.6497832,31.5628579 90.8113946,31.7032995 91.5773224,31.7742087 C91.9765164,31.8210226 92.3743293,31.8416758 92.7679982,31.8884896 L91.9060705,32.4 L87.7987915,32.4 C88.3374962,31.7032995 88.430043,31.6337671 88.430043,31.169759 L88.430043,30.6513643 L88.4210646,16.838519 L86.607425,16.838519 L88.3533811,16 L91.6864446,16 Z M69.4938257,22.2 C68.7221147,22.2 67.9448569,22.5023619 67.384621,22.9958721 C66.4707711,23.8167672 66.3078312,24.8482729 66.3078312,25.8603163 C66.3078312,28.1777289 67.4504904,32 70.2863375,32 C71.2015741,32 72.1355317,31.5558408 72.6742732,30.8065395 C73.2400559,30.0558479 73.3773415,29.1188737 73.3773415,28.2055323 C73.3773415,26.1397404 72.3955421,22.2 69.4938257,22.2 Z M57.0697809,22.2 C56.2949165,22.2 55.5256017,22.5023619 54.9637036,22.9958721 C54.0480179,23.8167672 53.8856917,24.8482729 53.8856917,25.8603163 C53.8856917,28.1777289 55.0337675,32 57.86615,32 C58.7797546,32 59.7127829,31.5558408 60.2531763,30.8065395 C60.8150743,30.0558479 60.955202,29.1188737 60.955202,28.2055323 C60.955202,26.1397404 59.9701461,22.2 57.0697809,22.2 Z M112.551733,22.6 C111.02354,22.6 109.562062,23.7999114 108.926879,24.8463618 L108.926879,29.7078082 C109.562062,30.7563419 111.02354,32 112.551733,32 C115.012548,32 116.400361,29.9536234 116.400361,27.2892369 C116.400361,24.6290168 115.012548,22.6 112.551733,22.6 Z M130.034417,27.4 L127.251402,27.4 C126.18829,27.4 125.308161,27.6347585 124.615886,28.1084427 C123.92222,28.5807378 123.570864,29.1523538 123.570864,29.8170397 C123.570864,30.4442198 123.793506,30.9456861 124.236005,31.3256058 C124.679896,31.7096929 125.286593,31.9 126.060271,31.9 C127.069114,31.9 127.79409,31.6749653 128.535067,31.2297577 C129.271175,30.7873283 129.772117,30.2101559 130.034417,29.511437 L130.034417,27.4 Z M80.96136,22.5 C80.3606198,22.5 79.7097608,22.8012477 79.3403914,23.2671865 C78.9483655,23.7495945 78.8309637,24.3754211 78.8309637,24.9772302 C78.8309637,26.5280724 79.73585,29.1 81.726188,29.1 C82.3070179,29.1 82.9317877,28.8179663 83.2984108,28.4515284 C83.8339277,27.9169682 83.8806139,27.1786026 83.8806139,26.7593263 C83.8806139,25.0938865 82.8871612,22.5 80.96136,22.5 Z M97.1421109,22.2 C96.2186904,22.2 94.4848793,22.9295044 94.4848793,25.4626216 C94.4848793,25.8579435 94.5314613,26.2789717 94.5547523,26.7 L98.762892,24.8477536 C99.2040514,24.6851783 99.4335364,24.5448356 99.4335364,24.2182955 C99.4335364,23.2817508 98.3888656,22.2 97.1421109,22.2 Z" id="Combined-Shape" fill="#FFFFFF"></path>
                </g>
            </g>
        </g>
    </g>
</svg>