<?xml version="1.0" encoding="UTF-8"?>
<svg width="182px" height="99px" viewBox="0 0 182 99" version="1.1" xmlns="http://www.w3.org/2000/svg" xmlns:xlink="http://www.w3.org/1999/xlink">
    <!-- Generator: sketchtool 52.4 (67378) - http://www.bohemiancoding.com/sketch -->
    <title>FA82C114-56A6-45A0-8218-5E2F6B33C7DB</title>
    <desc>Created with sketchtool.</desc>
    <g id="Homepage" stroke="none" stroke-width="1" fill="none" fill-rule="evenodd">
        <g id="Main-page" transform="translate(-225.000000, -4348.000000)" fill-rule="nonzero">
            <g id="icn_19" transform="translate(226.000000, 4349.000000)">
                <path d="M95.511811,42.5060241 L99.496063,46.3935743 L66.7165354,46.3935743 C65.2677165,46.3935743 64,47.6305221 64,49.0441767 C64,50.4578313 65.2677165,51.6947791 66.7165354,51.6947791 L99.496063,51.6947791 L95.511811,55.5823293 C94.4251969,56.6425703 94.4251969,58.2329317 95.511811,59.2931727 C96.0551181,59.8232932 96.7795276,60 97.503937,60 C98.2283465,60 98.9527559,59.8232932 99.496063,59.2931727 L110,49.0441767 L99.496063,38.7951807 C98.4094488,37.7349398 96.7795276,37.7349398 95.6929134,38.7951807 C94.6062992,39.8554217 94.4251969,41.62249 95.511811,42.5060241 Z" id="Shape" stroke="#979797" fill="#979797"></path>
                <path d="M170.128364,37.844186 C169.022774,36.7418605 167.364389,36.7418605 166.258799,37.844186 C165.153209,38.9465116 165.153209,40.6 166.258799,41.7023256 L170.312629,45.744186 L155.571429,45.744186 C146.910973,45.744186 139.908903,38.7627907 139.908903,30.127907 C139.908903,18.5534884 130.511387,9 118.718427,9 L113.559006,9 C112.084886,9 110.795031,10.2860465 110.795031,11.755814 C110.795031,13.2255814 112.084886,14.5116279 113.559006,14.5116279 L118.718427,14.5116279 C127.378882,14.5116279 134.380952,21.4930233 134.380952,30.127907 C134.380952,36.3744186 137.144928,41.8860465 141.383023,45.744186 L137.329193,45.744186 C125.720497,45.744186 116.138716,55.1139535 116.138716,66.872093 C116.138716,75.5069767 109.136646,82.4883721 100.47619,82.4883721 L94.7639752,82.4883721 C93.2898551,82.4883721 92,83.7744186 92,85.244186 C92,86.7139535 93.2898551,88 94.7639752,88 L100.47619,88 C112.084886,88 121.666667,78.6302326 121.666667,66.872093 C121.666667,58.2372093 128.668737,51.255814 137.329193,51.255814 L155.571429,51.255814 L170.312629,51.255814 L166.258799,55.2976744 C165.153209,56.4 165.153209,58.0534884 166.258799,59.155814 C166.811594,59.7069767 167.548654,59.8906977 168.285714,59.8906977 C169.022774,59.8906977 169.759834,59.7069767 170.312629,59.155814 L181,48.5 L170.128364,37.844186 Z" id="Shape" stroke="#68B513" fill="#68B513"></path>
                <path d="M28.5751295,51 L38.1398964,51 C49.7279793,51 59.2927461,41.627027 59.2927461,29.8648649 C59.2927461,21.227027 66.2823834,14.2432432 74.9274611,14.2432432 L86.3316062,14.2432432 L82.2849741,18.2864865 C81.1813472,19.3891892 81.1813472,21.0432432 82.2849741,22.1459459 C82.8367876,22.6972973 83.5725389,22.8810811 84.3082902,22.8810811 C85.0440415,22.8810811 85.7797927,22.6972973 86.3316062,22.1459459 L97,11.4864865 L86.3316062,0.827027027 C85.2279793,-0.275675676 83.5725389,-0.275675676 82.4689119,0.827027027 C81.365285,1.92972973 81.365285,3.58378378 82.4689119,4.68648649 L86.515544,8.72972973 L75.111399,8.72972973 C63.5233161,8.72972973 53.9585492,18.1027027 53.9585492,29.8648649 C53.9585492,38.5027027 46.9689119,45.4864865 38.3238342,45.4864865 L28.7590674,45.4864865 C27.2875648,45.4864865 26,46.772973 26,48.2432432 C26,49.7135135 27.1036269,51 28.5751295,51 Z" id="Shape" stroke="#979797" fill="#979797"></path>
                <path d="M65.4875283,74.9061372 C64.399093,76.0108303 64.399093,77.66787 65.4875283,78.7725632 L69.478458,82.8231047 L39.5464853,82.8231047 C31.0204082,82.8231047 24.1269841,75.8267148 24.1269841,67.1732852 C24.1269841,55.5740072 14.8752834,46 3.26530612,46 L2.72108844,46 C1.26984127,46 0,47.2888087 0,48.7617329 C0,50.234657 1.26984127,51.5234657 2.72108844,51.5234657 L3.26530612,51.5234657 C11.7913832,51.5234657 18.6848073,58.5198556 18.6848073,67.1732852 C18.6848073,78.7725632 27.9365079,88.3465704 39.5464853,88.3465704 L69.478458,88.3465704 L65.4875283,92.3971119 C64.399093,93.5018051 64.399093,95.1588448 65.4875283,96.2635379 C66.031746,96.8158845 66.7573696,97 67.4829932,97 C68.2086168,97 68.9342404,96.8158845 69.478458,96.2635379 L80,85.5848375 L69.2970522,74.9061372 C68.2086168,73.801444 66.5759637,73.801444 65.4875283,74.9061372 Z" id="Shape" stroke="#979797" fill="#979797"></path>
            </g>
        </g>
    </g>
</svg>