<?xml version="1.0" encoding="UTF-8"?>
<svg width="112px" height="126px" viewBox="0 0 112 126" version="1.1" xmlns="http://www.w3.org/2000/svg" xmlns:xlink="http://www.w3.org/1999/xlink">
    <!-- Generator: sketchtool 52.4 (67378) - http://www.bohemiancoding.com/sketch -->
    <title>36CF5203-CF62-48D5-AF9D-743F23795478</title>
    <desc>Created with sketchtool.</desc>
    <g id="Homepage" stroke="none" stroke-width="1" fill="none" fill-rule="evenodd">
        <g id="Main-page" transform="translate(-650.000000, -3866.000000)">
            <g id="icn_17" transform="translate(650.000000, 3866.000000)">
                <path d="M34.6514839,2.59522835 C31.0043449,2.50118651 26.6672178,0.176584153 23.7100667,2.31310281 C21.1749336,4.14471679 23.751974,8.84920586 22.2209054,11.5762247 C21.6780716,12.5430774 20.7239327,8.74635843 19.7755456,9.32096186 C15.79003,11.7356836 12.1113481,15.0650258 9.79206851,19.1065384 C7.21172659,23.6029711 7.51134341,29.2678648 5.57016541,34.0748656 C4.62200985,36.4228134 2.14263931,37.9475824 1.22982608,40.3094917 C0.752126165,41.5455428 1.08403641,43.0579932 1.63216091,44.2644737 C2.01440854,45.1058416 2.89119872,45.8631121 3.8075557,45.9833497 C14.0211906,47.3235077 24.3149619,48.0312571 34.6009744,48.5903987 C35.0086776,48.6125612 57.9766439,50.0913984 63.6718426,47.2894865 C66.230268,46.0307977 66.4748973,40.6176467 65.394393,33.3312384 C64.5236945,27.4596611 50.8232612,3.90921991 48.0382608,2.34096706 C44.9079172,0.578249078 40.9088645,1.44698902 37.3441663,1 L34.6514839,2.59522835 Z" id="Path-3" fill="#FFFFFF"></path>
                <g id="Group-8">
                    <path d="M9.57347973,55.5810358 C9.22657528,55.5669926 8.87217702,55.623516 8.5295558,55.7583308 C7.06770524,56.2975902 6.33606548,57.8261945 6.88425944,59.1743429 C16.8431164,86.5866923 31.1878823,89.5515671 36.9439188,89.5515671 C42.6999554,89.5515671 57.044364,86.5866923 67.0945867,59.1743429 C67.6427806,57.7363179 66.8197761,56.2077136 65.4492912,55.7583308 C63.9874406,55.2190715 62.4352952,56.0286633 61.9784669,57.3768117 C53.1159979,81.5536059 41.5122018,84.1589727 36.9439188,84.1589727 C32.3756358,84.1589727 20.7714834,81.5536059 12.0003801,57.3768117 C11.5892346,56.298293 10.6141912,55.6231655 9.57347973,55.5810358 Z M25.6142197,88.7440802 C25.5228541,88.7440802 25.4325592,88.7437297 25.3411936,88.8336062 L25.2484008,88.8336062 C25.1570351,88.8336062 25.1573914,88.8332557 25.1573914,88.9231322 L24.9753746,88.9231322 L4.69112727,97.0120225 C3.32064237,97.5512818 2.59007341,99.1694104 3.22963303,100.517559 C3.68646133,101.596077 4.69219807,102.225564 5.78858599,102.225564 C6.15404863,102.225564 6.51915403,102.134636 6.79325102,102.044759 L24.5185463,94.9441606 C26.8940535,99.4379885 31.5533449,102.225564 36.9439188,102.225564 C42.3344928,102.225564 46.9937842,99.4379885 49.3692914,94.9441606 L67.0945867,102.044759 C67.4600493,102.224512 67.8251547,102.225564 68.0992517,102.225564 C69.1956396,102.225564 70.2013754,101.596077 70.6582037,100.517559 C71.2977633,99.1694104 70.5671944,97.5512818 69.1967104,97.0120225 L48.9124631,88.9231322 L48.7304462,88.9231322 C48.6390806,88.9231322 48.6394369,88.9234828 48.6394369,88.8336062 L48.5466441,88.8336062 C48.4552784,88.8336062 48.3649836,88.8339567 48.2736179,88.7440802 L48.0898158,88.7440802 L47.8167896,88.7440802 L47.5419782,88.7440802 C47.4506125,88.7440802 47.3603176,88.7437297 47.268952,88.8336062 C47.1775863,88.8336062 47.0855071,88.8332557 46.9941414,88.9231322 C46.9027758,88.9231322 46.8106966,89.0126583 46.7193309,89.0126583 C46.6279652,89.0126583 46.5373131,89.1021843 46.5373131,89.1021843 C46.4459475,89.1021843 46.3552954,89.1931124 46.3552954,89.282989 C46.2639297,89.3728656 46.1714933,89.3721645 46.1714933,89.4620411 L45.9894764,89.6428458 C45.8981108,89.7327223 45.89704,89.8218978 45.8056743,89.8218978 C45.7143086,89.9117744 45.7150222,90.0009499 45.6236565,90.0009499 C45.5322909,90.0908265 45.5330044,90.1814041 45.4416388,90.2712806 C45.4416388,90.2712806 45.4402117,90.3608067 45.348846,90.3608067 L45.348846,90.5416113 C45.348846,90.6314879 45.3492023,90.6307869 45.2578367,90.7206634 C43.9787174,95.3043679 40.0503513,96.9224965 36.9439188,96.9224965 C33.8374864,96.9224965 29.9091202,95.3043679 28.630001,90.7206634 C28.630001,90.6307869 28.6303573,90.6311374 28.5389917,90.6311374 L28.5389917,90.4503327 C28.5389917,90.4503327 28.5375645,90.3608067 28.4461989,90.3608067 C28.4461989,90.2709301 28.3551895,90.1821051 28.3551895,90.0922285 C28.2638239,90.002352 28.2645384,89.9117744 28.1731727,89.8218978 L27.9893706,89.6428458 C27.8980049,89.5529692 27.8987185,89.4620411 27.8073528,89.4620411 L27.6253351,89.282989 C27.5339694,89.1931124 27.4418902,89.1920609 27.3505245,89.1021843 C27.2591589,89.1021843 27.2598724,89.0126583 27.1685068,89.0126583 C27.0771411,89.0126583 26.9850619,88.9231322 26.8936962,88.9231322 C26.8023306,88.9231322 26.7116785,88.8336062 26.7116785,88.8336062 C26.6203128,88.8336062 26.5282336,88.7440802 26.4368679,88.7440802 L26.1620574,88.7440802 L25.8890312,88.7440802 L25.6142197,88.7440802 Z" id="Shape" fill="#979797" fill-rule="nonzero"></path>
                    <path d="M27.7079388,0 L46.2718966,0 C49.4121297,0 51.9992865,2.4314537 51.9992865,5.49372767 L51.9992865,5.674917 C62.7130228,10.9888625 69.6396473,21.6164015 69.6396473,33.2350282 L69.6396473,36.8377031 C69.6396473,36.8377031 69.7312848,36.9274178 69.8236446,36.9274178 L71.8566417,37.4674678 C73.057319,37.8277353 73.8878368,38.8191743 73.8878368,39.9900437 L73.8878368,48.9070163 C73.8878368,50.4381532 72.6871594,51.6090226 71.1170429,51.6090226 L2.77079388,51.6090226 C1.20067735,51.6090226 0,50.4381532 0,48.9070163 L0,39.9900437 C0,38.7291075 0.830516834,37.7380197 2.03119418,37.3777522 L4.06419215,36.8377031 C4.24891174,36.8377031 4.24818949,36.7479884 4.24818949,36.7479884 L4.24818949,33.2350282 C4.24818949,21.6164015 11.0838968,10.9888625 21.9823528,5.674917 L21.9823528,5.49372767 C21.9823528,2.52152066 24.5677057,0 27.7079388,0 Z M27.5239405,5.40401206 C27.4315807,5.40401206 27.3381385,5.4036608 27.3381385,5.49372767 L27.3381385,7.38653886 L27.3381385,20.2650462 C27.3381385,21.7961831 26.1374611,22.9670524 24.5673446,22.9670524 C22.9972281,22.9670524 21.7965507,21.7961831 21.7965507,20.2650462 L21.7965507,11.8898825 C14.3154072,16.57336 9.69777858,24.5886083 9.69777858,33.2350282 L9.69777858,36.8377031 C9.69777858,39.2695087 8.03530225,41.5215327 5.54158776,42.1520008 L5.54158776,46.2947249 L62.8046613,46.2947249 L62.8046613,43.4132883 L24.6593442,43.4132883 C23.0892277,43.4132883 21.8885503,42.242419 21.8885503,40.7112821 C21.8885503,39.1801453 23.0892277,38.0092759 24.6593442,38.0092759 L58.5564718,38.0092759 C58.5564718,37.6490084 58.4644722,37.2876853 58.4644722,36.9274178 L58.4644722,33.4144585 C58.4644722,27.1998442 56.0616748,21.3454974 51.905484,16.7520869 L51.905484,20.4462355 C51.905484,21.9773724 50.7048067,23.1482417 49.1346901,23.1482417 C47.5645736,23.1482417 46.3638962,21.9773724 46.3638962,20.4462355 L46.3638962,8.01630355 C46.2715364,7.83616981 46.2718966,7.65638822 46.2718966,7.47625447 L46.2718966,5.49372767 C46.2718966,5.49372767 46.2726189,5.40401206 46.0878993,5.40401206 L27.5239405,5.40401206 Z" id="Combined-Shape" fill="#68B513"></path>
                    <path d="M31.5478553,73.8678443 C31.7449202,73.8678443 31.9466038,73.8312435 32.1405896,73.7504168 C32.3530503,73.661965 32.5732087,73.5628379 32.8026046,73.4621858 C33.5046485,73.1495542 34.300606,72.7942217 34.8486929,72.7942217 C35.0149664,72.7942217 35.2228083,72.8887737 35.5753698,73.0534772 C36.1342336,73.3173077 36.8993998,73.6772153 37.9601634,73.6772153 C38.9347111,73.6772153 39.7291291,73.3234079 40.3680505,73.0382269 C40.6159213,72.9268995 40.9946554,72.7576209 41.0685548,72.7454207 L44.2693203,73.5643629 C45.0960693,73.7839675 45.9320557,73.2852821 46.1460559,72.4693899 C46.3585165,71.6550227 45.8627751,70.8223552 45.0391052,70.6119008 L41.8398792,69.7929586 C40.7667991,69.5154027 39.8430572,69.9271614 39.1040637,70.2580933 C38.6776029,70.4471973 38.2726961,70.6271511 37.9601634,70.6271511 C37.6106811,70.6271511 37.3551125,70.5142987 36.8963207,70.2992692 C36.372867,70.052214 35.7185498,69.7441575 34.8502324,69.7441575 C33.6416702,69.7441575 32.4762159,70.2641935 31.541697,70.6805272 C31.3400134,70.7705041 31.1429484,70.857431 30.9551209,70.9352076 C30.1714799,71.2615645 29.8004436,72.1537082 30.1283719,72.9314746 C30.3731635,73.5155619 30.9458835,73.8678443 31.5478553,73.8678443 Z" id="Shape" fill="#9B9B9B" fill-rule="nonzero" transform="translate(38.102109, 71.784656) scale(1, -1) translate(-38.102109, -71.784656) "></path>
                    <path d="M40.3634318,74.756938 C38.9747399,75.5697801 37.5414004,75.5560548 35.8494132,74.709662 C35.0919449,74.3223039 34.1651239,74.6288353 33.7802315,75.3791511 C33.3968786,76.1309919 33.7001738,77.0490613 34.4591817,77.4287942 C35.7647369,78.084558 37.0395007,78.4124399 38.2726961,78.4124399 C39.539762,78.4124399 40.7606408,78.0677827 41.9322534,77.3815183 C42.6635491,76.9529842 42.9052615,76.0166145 42.4726424,75.2922243 C42.0369442,74.566309 41.096267,74.326879 40.3634318,74.756938 Z" id="Shape" fill="#9B9B9B" fill-rule="nonzero"></path>
                    <g id="Group-17" transform="translate(61.052775, 66.626402)">
                        <path d="M24.7045889,3.83976334 L46.6746016,11.7765059 C46.5794264,19.4397535 45.2809387,28.2267227 41.9637462,36.1108289 C38.5838988,44.1438068 33.1534541,51.2233714 24.7263738,55.4487859 C16.2986028,51.2232418 10.8586783,44.1429646 7.46979051,36.1098572 C4.14807716,28.2357923 2.84017239,19.4615271 2.74129321,11.8062672 C3.55185138,11.5286327 4.73953162,11.1034999 6.24852211,10.5620231 C8.51006228,9.75051731 11.3600428,8.71628064 14.1559066,7.69779923 C19.4026558,5.78652214 24.100704,4.06154189 24.7045889,3.83976334 Z" id="Path" fill="#FFFFFF"></path>
                        <path d="M25.2473703,0.863188019 C25.0887417,0.857154237 24.930458,0.882610636 24.7809312,0.938204338 C24.7809312,0.938204338 19.4163483,2.93097083 13.837132,4.98628581 C11.0475238,6.01394658 8.20413187,7.05718886 5.95292459,7.87409353 C3.9857437,8.58791946 2.38520742,9.15205944 1.84354628,9.33241128 C1.53241692,9.37733836 1.24878195,9.54249864 1.04876307,9.79521251 C1.04838668,9.79564834 1.04801057,9.79608443 1.04763474,9.79652078 C1.03176087,9.81647256 1.01645896,9.83691244 1.00174932,9.85781333 C0.791402241,10.1451659 0.70440585,10.510553 0.761415002,10.8672237 C0.784483084,19.0557637 2.09322066,28.5467213 5.69704439,37.1857648 C9.33333958,45.9025197 15.3517898,53.7668699 24.6974975,58.3041535 C25.0327851,58.4669215 25.4198312,58.4669215 25.7551189,58.3041535 C35.1010773,53.7667391 41.1103128,45.9014731 44.7370792,37.1845219 C48.3321271,28.5438431 49.6310858,19.0515576 49.6535897,10.8631288 C49.7057695,10.5304217 49.6328549,10.1895373 49.4500515,9.91156369 C49.432357,9.8839859 49.4136634,9.85712072 49.3940111,9.83102646 C49.2035572,9.5721049 48.927232,9.39682746 48.6192871,9.33960678 L25.6154567,0.935587794 C25.496936,0.892300452 25.3728558,0.867839702 25.2473703,0.863024485 L25.2473703,0.863188019 Z M25.1956803,4.80090303 L45.7757642,12.363445 C45.6866103,19.6653867 44.4702712,28.0380689 41.3629402,35.5504562 C38.1969182,43.2046962 33.1100296,49.9504743 25.2160869,53.9766695 C17.3214973,49.9503509 12.2257286,43.2038937 9.05123812,35.5495303 C5.93967234,28.0467109 4.71451192,19.6861337 4.62188831,12.3918031 C5.38116667,12.1272585 6.49370854,11.7221698 7.90723304,11.2062225 C10.0256973,10.4329775 12.6953744,9.44750287 15.3143584,8.4770407 C20.2291729,6.65587628 24.63,5.01222519 25.1956803,4.80090303 Z" id="Shape" stroke="#979797" stroke-width="0.8" fill="#979797"></path>
                        <path d="M26.5684208,23.7997471 L32.4478298,23.7998159 C33.0927231,23.7886645 33.6942002,24.1232798 34.0210412,24.6762768 C34.3488835,25.2309682 34.3488835,25.9183363 34.0210412,26.4730277 C33.6942002,27.0260247 33.0927231,27.36064 32.4564744,27.3495633 L26.5684147,27.3495633 L26.568343,33.2028664 C26.5796819,33.8455763 26.2402407,34.443613 25.6817539,34.7671445 C25.1249557,35.0896979 24.4363663,35.0896979 23.8795681,34.7671445 C23.3210813,34.443613 22.9816402,33.8455763 22.9929012,33.2116862 L22.9929012,27.3495574 L17.1132991,27.3494885 C16.4684058,27.36064 15.8669286,27.0260247 15.5400877,26.4730277 C15.2122453,25.9183363 15.2122453,25.2309682 15.5400877,24.6762768 C15.8669286,24.1232798 16.4684058,23.7886645 17.1046544,23.7997412 L22.9929053,23.7997412 L22.9929525,17.9447405 C22.978906,16.9640013 23.7680477,16.1594349 24.7536234,16.1446001 L24.7536749,16.1445993 C25.2358076,16.1373919 25.7006526,16.3238347 26.0425094,16.6619688 C26.3853677,17.0010935 26.5752555,17.4639013 26.5684208,17.93758 L26.5684208,23.7997471 Z" id="Shape" stroke="#68B513" fill="#68B513"></path>
                    </g>
                </g>
            </g>
        </g>
    </g>
</svg>