<?xml version="1.0" encoding="UTF-8"?>
<svg width="109px" height="125px" viewBox="0 0 109 125" version="1.1" xmlns="http://www.w3.org/2000/svg" xmlns:xlink="http://www.w3.org/1999/xlink">
    <!-- Generator: sketchtool 52.4 (67378) - http://www.bohemiancoding.com/sketch -->
    <title>040D479F-873D-4FCA-ACB1-736DC2988723</title>
    <desc>Created with sketchtool.</desc>
    <g id="Homepage" stroke="none" stroke-width="1" fill="none" fill-rule="evenodd">
        <g id="Main-page" transform="translate(-1056.000000, -3861.000000)">
            <g id="icn_18" transform="translate(1056.000000, 3862.000000)">
                <circle id="Oval-9" fill="#FFFFFF" cx="52.5" cy="15.5" r="13.5"></circle>
                <g id="icn_paylessgetmore">
                    <path d="M24.9661297,31.9349202 C25.2879435,31.9517128 25.6034938,32.0331512 25.895102,32.1746728 L41.1844375,40.0465501 C45.3983797,38.950708 49.8553781,38.3283231 54.4997069,38.3283231 C75.1675443,38.3283231 92.8714645,50.0803949 97.7356253,66.3794293 C101.06178,65.9182093 104.044895,63.3961397 104.044895,58.7872634 C104.029498,58.0507353 104.322494,57.3431223 104.848844,56.8456524 C105.375193,56.3481824 106.083773,56.1091744 106.793106,56.1898412 C108.069419,56.3346295 109.027082,57.4620572 108.999416,58.7872634 C108.999416,65.6743649 104.188503,70.3192999 98.8194263,71.3343166 C98.9939245,72.6745017 99.0903766,74.0263228 99.0903766,75.4101109 C99.0903766,86.439626 93.1909319,96.1922506 84.22682,102.901743 L84.22682,121.442612 C84.2266832,122.854945 83.1176565,123.999832 81.7495606,123.999973 L65.6473744,123.999973 C64.5283589,124.005272 63.5448133,123.235546 63.2475293,122.121847 L60.4219053,112.012342 C58.4686729,112.232915 56.5312207,112.491848 54.4997069,112.491848 C52.4681932,112.491848 50.530741,112.232915 48.5775086,112.012342 L45.7518846,122.121847 C45.4546006,123.235546 44.471055,124.005272 43.3520395,123.999973 L27.2498533,123.999973 C25.8817573,123.999832 24.7727306,122.854945 24.7725939,121.442612 L24.7725939,102.981661 C19.97413,99.4031454 16.0630947,94.9560222 13.4700977,89.8751849 L1.8579448,86.8383186 C0.763789596,86.5465808 -0.000481902133,85.5274764 2.27978652e-07,84.3608749 L2.27978652e-07,67.7380275 C-0.000481902133,66.571426 0.763789596,65.5523216 1.8579448,65.2605838 L12.7733685,62.4234474 C15.2582331,56.8862106 19.2638254,52.0689094 24.3081077,48.1981387 L22.3340416,34.8519102 C22.2266032,34.0851276 22.4616446,33.3093999 22.9731851,32.7424894 C23.4847256,32.1755788 24.2176198,31.8785998 24.9661297,31.9349202 Z M28.2825191,38.9032843 L29.7431853,48.7633368 C29.8793716,49.7223971 29.4769539,50.6781931 28.7053435,51.2283499 C23.3725402,55.0143684 19.3591337,59.9183513 17.1737679,65.3823471 C16.884168,66.1275064 16.271482,66.6875389 15.5209087,66.8931616 L5.45,69.5172079 L5.45,82.0808231 L16.1359261,84.8639024 C16.8405927,85.0459297 17.4314936,85.5407009 17.7503467,86.2156838 C20.0647062,91.2348958 23.9500538,95.7504182 28.9744136,99.2563984 C29.6486136,99.7308817 30.0517126,100.520063 30.050694,101.363523 L30.050694,118.419887 L41.6975854,118.419887 L44.5420407,108.201947 C44.877072,106.968742 46.0461026,106.185339 47.2711802,106.373066 C49.6639545,106.740369 52.1370131,106.969504 54.6513886,106.969504 C57.1657518,106.969504 59.6388104,106.740369 62.031597,106.373066 C63.2566746,106.185339 64.4257052,106.968742 64.7607366,108.201947 L67.6051919,118.419887 L79.2520832,118.419887 L79.2520832,101.363523 C79.2510646,100.520063 79.6541637,99.7308817 80.3283636,99.2563984 C88.8171039,93.3328606 94.0125,84.6991441 94.0125,75.1628831 C94.0125,57.922893 76.6927869,43.3562113 54.6513886,43.3562113 C50.1076034,43.3562113 45.7538586,43.9595829 41.6975854,45.1055754 C41.1095925,45.281959 40.4791433,45.2252552 39.9294104,44.9465423 L28.2825191,38.9032843 Z M54.7328654,47.2734531 C60.4420129,47.2734531 65.8544939,48.3978436 70.6370687,50.4579167 C71.4695118,50.8143748 72.060926,51.6223103 72.1874118,52.5758523 C72.3138975,53.5293943 71.9561232,54.4828074 71.2495363,55.0751452 C70.5429494,55.667483 69.5955416,55.8082152 68.765986,55.4440627 C64.5948935,53.6474889 59.817907,52.6367737 54.7328654,52.6367737 C51.4477306,52.6367737 48.2900165,53.0620839 45.3384708,53.8518309 C44.4664403,54.0811624 43.546908,53.7914537 42.9280304,53.0923955 C42.3091529,52.3933373 42.0855287,51.391784 42.3418273,50.4669476 C42.5981259,49.5421111 43.2951707,48.8353573 44.169044,48.6142799 C47.5141284,47.7191841 51.0427409,47.2734531 54.7328654,47.2734531 Z M29.29375,62.6187625 C31.927471,62.6187625 34.0625,64.8048239 34.0625,67.5013609 C34.0625,70.19802 31.927471,72.3839594 29.29375,72.3839594 C26.6600528,72.3839594 24.525,70.19802 24.525,67.5013609 C24.525,64.8048239 26.6600528,62.6187625 29.29375,62.6187625 Z" id="Shape" fill="#979797" fill-rule="nonzero"></path>
                    <path d="M53.7585034,0 C62.9444029,0 70.4421769,7.50808332 70.4421769,16.7065868 C70.4421769,25.9050903 62.9444029,33.4131737 53.7585034,33.4131737 C44.572592,33.4131737 37.0748299,25.9050903 37.0748299,16.7065868 C37.0748299,7.50808332 44.572592,0 53.7585034,0 Z M53.7585034,4.00958084 C46.7257171,4.00958084 41.0789116,9.66416706 41.0789116,16.7065868 C41.0789116,23.7490066 46.7257171,29.4035928 53.7585034,29.4035928 C60.7912771,29.4035928 66.4380952,23.7490066 66.4380952,16.7065868 C66.4380952,9.66416706 60.7912771,4.00958084 53.7585034,4.00958084 Z" id="Combined-Shape" stroke="#68B513" fill="#68B513"></path>
                </g>
            </g>
        </g>
    </g>
</svg>