<?xml version="1.0" encoding="UTF-8"?>
<svg width="120px" height="82px" viewBox="0 0 120 82" version="1.1" xmlns="http://www.w3.org/2000/svg" xmlns:xlink="http://www.w3.org/1999/xlink">
    <!-- Generator: sketchtool 61.2 (101010) - https://sketch.com -->
    <title>B960BCD2-88C1-46B7-BF0C-65565CFB937D</title>
    <desc>Created with sketchtool.</desc>
    <g id="Page-1" stroke="none" stroke-width="1" fill="none" fill-rule="evenodd">
        <g id="Homepage_v3" transform="translate(-1183.000000, -7063.000000)" fill="#172029" fill-rule="nonzero">
            <g id="icn_footer" transform="translate(1183.000000, 7063.000000)">
                <path d="M23.5943775,13 L1.6064257,13 C0.903614458,13 0.301204819,12.496124 0.100401606,11.7906977 L1.6064257,11.4883721 L0.100401606,11.7906977 C0.100401606,11.6899225 0,11.4883721 0,11.2868217 C0,8.36434109 2.20883534,5.84496124 5.02008032,5.34108527 C6.02409639,2.21705426 8.93574297,0 12.3493976,0 C16.064257,0 19.1767068,2.62015504 19.8795181,6.14728682 C22.6907631,6.24806202 25,8.56589147 25,11.3875969 C25,11.4883721 25,11.6899225 24.8995984,11.7906977 C24.8995984,12.3953488 24.2971888,13 23.5943775,13 Z M3.31325301,9.97674419 L21.5863454,9.97674419 C21.184739,9.47286822 20.5823293,9.17054264 19.8795181,9.17054264 C19.6787149,9.17054264 19.4779116,9.17054264 19.1767068,9.27131783 C18.5742972,9.47286822 17.9718876,9.27131783 17.5702811,8.86821705 C17.2690763,8.56589147 17.1686747,8.0620155 17.2690763,7.65891473 C17.1686747,5.13953488 15.060241,3.02325581 12.5502008,3.02325581 C10.2409639,3.02325581 8.23293173,4.73643411 7.93172691,7.05426357 C7.8313253,7.86046512 7.02811245,8.36434109 6.12449799,8.26356589 C4.81927711,8.26356589 3.81526104,8.96899225 3.31325301,9.97674419 Z" id="Shape"></path>
                <path d="M29.5483871,8 L26.4516129,8 C25.6774194,8 25,7.3 25,6.5 C25,5.7 25.6774194,5 26.4516129,5 L29.5483871,5 C30.3225806,5 31,5.7 31,6.5 C31,7.3 30.3225806,8 29.5483871,8 Z" id="Shape"></path>
                <path d="M34.5365854,8 L33.4634146,8 C32.6829268,8 32,7.3 32,6.5 C32,5.7 32.6829268,5 33.4634146,5 L34.5365854,5 C35.3170732,5 36,5.7 36,6.5 C36,7.3 35.3170732,8 34.5365854,8 Z" id="Shape"></path>
                <path d="M36.4375,13 L29.5625,13 C28.7291667,13 28,12.3 28,11.5 C28,10.7 28.7291667,10 29.5625,10 L36.4375,10 C37.2708333,10 38,10.7 38,11.5 C38,12.3 37.375,13 36.4375,13 Z" id="Shape"></path>
                <path d="M118.591411,82 L39.5092025,82 C38.7042945,82 38,81.3 38,80.5 C38,79.7 38.7042945,79 39.5092025,79 L118.490798,79 C119.295706,79 120,79.7 120,80.5 C120,81.3 119.396319,82 118.591411,82 Z" id="Shape"></path>
                <path d="M109.481595,69 L79.5184049,69 C78.708589,69 78,68.2820513 78,67.4615385 L78,62.5384615 C78,61.7179487 78.708589,61 79.5184049,61 L109.481595,61 C110.291411,61 111,61.7179487 111,62.5384615 L111,67.4615385 C111,68.2820513 110.291411,69 109.481595,69 Z M81.0368098,65.9230769 L107.96319,65.9230769 L107.96319,64.0769231 L81.0368098,64.0769231 L81.0368098,65.9230769 Z" id="Shape"></path>
                <path d="M83.5,81 C82.7,81 82,80.2820513 82,79.4615385 L82,74.5384615 C82,73.7179487 82.7,73 83.5,73 C84.3,73 85,73.7179487 85,74.5384615 L85,79.4615385 C85,80.2820513 84.4,81 83.5,81 Z" id="Shape"></path>
                <path d="M104.5,81 C103.7,81 103,80.2820513 103,79.4615385 L103,74.5384615 C103,73.7179487 103.7,73 104.5,73 C105.3,73 106,73.7179487 106,74.5384615 L106,79.4615385 C106,80.2820513 105.3,81 104.5,81 Z" id="Shape"></path>
                <path d="M83.5,73 C82.7,73 82,72.2631579 82,71.4210526 L82,67.9473684 C82,67.1052632 82.7,67 83.5,67 C84.3,67 85,67.1052632 85,67.9473684 L85,71.4210526 C85,72.3684211 84.4,73 83.5,73 Z" id="Shape"></path>
                <path d="M104.5,73 C103.7,73 103,72.2631579 103,71.4210526 L103,67.9473684 C103,67.1052632 103.7,67 104.5,67 C105.3,67 106,67.1052632 106,67.9473684 L106,71.4210526 C106,72.3684211 105.3,73 104.5,73 Z" id="Shape"></path>
                <path d="M65,51 C57.3098592,51 51,44.6901408 51,37 C51,29.3098592 57.3098592,23 65,23 C72.6901408,23 79,29.3098592 79,37 C79,44.6901408 72.6901408,51 65,51 Z M65,25.8591549 C58.8873239,25.8591549 53.9577465,30.7887324 53.9577465,36.9014085 C53.9577465,43.0140845 58.8873239,47.943662 65,47.943662 C71.1126761,47.943662 76.0422535,43.0140845 76.0422535,36.9014085 C76.0422535,30.8873239 71.1126761,25.8591549 65,25.8591549 Z" id="Shape"></path>
                <path d="M65.5,82 C64.7,82 64,81.2965686 64,80.4926471 L64,42.5073529 C64,41.7034314 64.7,41 65.5,41 C66.3,41 67,41.7034314 67,42.5073529 L67,80.4926471 C67,81.3970588 66.3,82 65.5,82 Z" id="Shape"></path>
                <path d="M65.5607037,71 C65.2566568,71 64.8512609,70.8964232 64.547214,70.5856928 L55.5271556,62.7138561 C54.9190617,62.1959721 54.8177128,61.1602042 55.3244576,60.5387434 C55.8312025,59.9172826 56.8446922,59.8137058 57.452786,60.3315898 L66.4728444,68.2034264 C67.0809383,68.7213104 67.1822872,69.7570784 66.6755424,70.3785392 C66.3714955,70.7928464 65.9660996,71 65.5607037,71 Z" id="Shape"></path>
                <path d="M54,67 C49.5443038,67 46,63.4556962 46,59 C46,54.5443038 49.5443038,51 54,51 C58.4556962,51 62,54.5443038 62,59 C62,63.4556962 58.4556962,67 54,67 Z M54,54.0379747 C51.2658228,54.0379747 49.0379747,56.2658228 49.0379747,59 C49.0379747,61.7341772 51.2658228,63.9620253 54,63.9620253 C56.7341772,63.9620253 58.9620253,61.7341772 58.9620253,59 C58.9620253,56.2658228 56.7341772,54.0379747 54,54.0379747 Z" id="Shape"></path>
                <path d="M53.4173907,82 C53.1296436,82 52.8418964,81.8984481 52.650065,81.7968962 C51.978655,81.2891368 51.7868236,80.3751698 52.2664022,79.6643065 L55.335705,74.688264 C55.8152836,73.9774007 56.678525,73.774297 57.349935,74.2820564 C58.021345,74.7898159 58.2131764,75.7037829 57.7335978,76.4146461 L54.664295,81.3906887 C54.3765479,81.7968962 53.8969693,82 53.4173907,82 Z" id="Shape"></path>
                <path d="M52.5826093,82 C52.1030307,82 51.6234521,81.7994421 51.335705,81.2980474 L48.2664022,76.3843788 C47.7868236,75.6824262 47.978655,74.7799156 48.650065,74.2785209 C49.321475,73.7771261 50.1847164,73.977684 50.664295,74.6796367 L53.7335978,79.5933052 C54.2131764,80.2952579 54.021345,81.1977684 53.349935,81.6991632 C53.1581036,81.8997211 52.8703564,82 52.5826093,82 Z" id="Shape"></path>
                <path d="M109.5,74 L78.5,74 C77.7,74 77,73.3 77,72.5 C77,71.7 77.7,71 78.5,71 L109.5,71 C110.3,71 111,71.7 111,72.5 C111,73.3 110.3,74 109.5,74 Z" id="Shape"></path>
            </g>
        </g>
    </g>
</svg>