<?xml version="1.0" encoding="UTF-8"?>
<svg width="145px" height="122px" viewBox="0 0 145 122" version="1.1" xmlns="http://www.w3.org/2000/svg" xmlns:xlink="http://www.w3.org/1999/xlink">
    <!-- Generator: sketchtool 52.4 (67378) - http://www.bohemiancoding.com/sketch -->
    <title>569B8DAB-30B9-487E-84C8-A3182C1B46EC</title>
    <desc>Created with sketchtool.</desc>
    <defs>
        <path d="M142.567985,12.7604296 C138.381446,3.43841243 98.7058231,0 71.5437954,0 C36.6990231,0 1.19212441,4.80427575 0.176666009,13.9897065 C0.0727448273,14.1931014 0,14.4143119 0,14.6577919 L0.167758479,94.7077745 C0.167758479,94.9334389 0.2286266,95.1427723 0.319186487,95.3357747 C0.332547782,95.4322759 0.32512484,95.5302618 0.357785783,95.6252784 C2.76133426,102.598604 26.3009665,106.87435 52.7875066,108.240214 L52.7875066,112.760924 C52.7875066,113.054882 52.8825203,113.329539 53.0413712,113.559658 C54.7115331,117.980898 64.1950832,120 72.5488616,120 C80.8581024,120 90.282269,118.003167 92.0281449,113.633889 C92.2077801,113.388925 92.3117013,113.087544 92.3117013,112.760924 L92.3117013,108.130351 C117.45172,106.685802 139.407296,102.595635 142.535324,96.0439452 C142.81888,95.7722571 143,95.3966447 143,94.9750087 L143,13.8041273 C143,13.3958529 142.835211,13.0276637 142.567985,12.7604296 Z M89.3440092,112.302173 C89.3336171,112.33335 89.3247096,112.364527 89.3172866,112.395704 C88.83628,114.288613 82.590617,117.029247 72.5503462,117.029247 C62.5100755,117.029247 56.2644124,114.288613 55.7848904,112.395704 C55.7774675,112.364527 55.7685599,112.334834 55.7581678,112.303657 L55.7581678,108.378285 C60.9794649,108.602464 66.2853836,108.718266 71.5437954,108.718266 C77.4851178,108.718266 83.48137,108.571287 89.3440092,108.286237 L89.3440092,112.302173 Z M105.303334,28.5910823 C107.378788,28.5910823 109.063796,30.2791112 109.063796,32.3531449 L109.063796,60.0222695 C109.063796,62.0963033 107.378788,63.7843322 105.303334,63.7843322 L81.7325249,63.7843322 L78.9949441,61.2025536 C78.219989,60.4691444 77.2431299,60.0801702 76.1771955,60.0801702 L68.9249816,60.0801702 C67.8545934,60.0801702 66.8807035,60.4691444 66.1042638,61.2025536 L63.3666829,63.7843322 L39.7973589,63.7843322 C37.723389,63.7843322 36.0354121,62.0963033 36.0354121,60.0222695 L36.0354121,32.3531449 C36.0354121,30.2791112 37.723389,28.5910823 39.7973589,28.5910823 L105.303334,28.5910823 Z M43.9363911,25.6218142 C44.885043,23.6190429 45.9687925,21.7543426 47.2277234,20.08116 C52.9493267,12.4798337 61.4857095,8.62572376 72.6023068,8.62572376 C83.6921815,8.62572376 92.2062955,12.4635027 97.9041454,20.0336517 C99.1719838,21.720196 100.261672,23.6012273 101.214777,25.6232989 L43.9363911,25.6232989 L43.9363911,25.6218142 Z M64.5454461,66.7536002 L68.1411189,63.3597268 C68.3712301,63.1429703 68.6043105,63.0494383 68.9220124,63.0494383 L76.1742263,63.0494383 C76.4904436,63.0494383 76.723524,63.1429703 76.9536352,63.3612115 L80.5507926,66.7536002 L102.726088,66.7536002 C97.6888801,85.1853318 86.2857573,101.099124 72.6008222,101.099124 C58.8520499,101.099124 47.3939973,85.1749394 42.35382,66.7536002 L64.5454461,66.7536002 Z M55.7566832,96.8204088 C60.7211466,101.347058 66.4249349,104.068392 72.6023068,104.068392 C78.7381103,104.068392 84.4062685,101.36042 89.3425246,96.8530707 L89.3425246,105.330331 C83.73375,105.603504 77.7820354,105.751967 71.5423108,105.751967 C66.0448802,105.751967 60.7745917,105.631712 55.7566832,105.41644 L55.7566832,96.8204088 Z M92.3131858,105.174444 L92.3131858,93.8348097 C98.4222667,86.9372 103.149196,77.2054239 105.868962,66.6971841 C109.313207,66.4047112 112.032972,63.5408522 112.032972,60.0222695 L112.032972,56.0315732 C112.801989,55.8148166 113.566552,55.586183 114.3326,55.3931806 C116.73021,54.7859653 118.606729,52.3645271 118.606729,49.8792498 L118.606729,41.6840699 C118.606729,39.1973079 116.73021,36.7743851 114.3326,36.1671698 C113.566552,35.9726827 112.801989,35.7440491 112.032972,35.5243233 L112.032972,32.3516603 C112.032972,28.6400752 109.014804,25.6203296 105.303334,25.6203296 L104.488295,25.6203296 C103.325862,22.9272034 101.933318,20.4448953 100.278002,18.2446677 C93.9863169,9.89063196 84.6764636,5.65497105 72.6037914,5.65497105 C60.5043967,5.65497105 51.1693054,9.90696293 44.8568359,18.2936606 C43.2104274,20.4820112 41.8253065,22.9479883 40.6643585,25.6218142 L39.7973589,25.6218142 C36.0858881,25.6218142 33.0662355,28.6415599 33.0662355,32.3531449 L33.0662355,35.5183847 C32.2972187,35.7381106 31.5267174,35.9697135 30.7591852,36.1642005 C28.3675135,36.7699312 26.4924784,39.1958232 26.4924784,41.6855545 L26.4924784,49.8807344 C26.4924784,52.3645271 28.3675135,54.7859653 30.7591852,55.3916959 C31.5267174,55.586183 32.2972187,55.8148166 33.0662355,56.0330579 L33.0662355,60.0237541 C33.0662355,63.5349136 35.7800629,66.3958034 39.2154003,66.6956995 C41.9336815,77.1876083 46.666549,86.9119612 52.7889912,93.8110556 L52.7889912,105.279854 C24.1661285,103.804127 4.69723742,99.1037759 3.16514228,94.6602662 C3.15920393,94.640966 3.14287346,94.6290889 3.1369351,94.612758 L2.96917662,14.8879101 C3.04340604,14.7231158 3.09388204,14.5449597 3.10427416,14.3534419 C3.35665417,9.59964369 29.5151002,2.96926808 71.5423108,2.96926808 C113.945122,2.96926808 139.983317,9.62785173 139.983317,14.4009502 C139.983317,14.6058297 139.913541,14.819617 139.77102,15.0571584 C139.408781,15.6584352 139.548332,16.393329 140.029339,16.863958 L140.029339,94.442025 C139.999647,94.502895 139.953625,94.5489187 139.934325,94.6142426 C138.595226,98.9760974 120.012635,103.585886 92.3131858,105.174444 Z M112.032972,38.616816 C112.558517,38.7623101 113.079607,38.9152274 113.602182,39.0473598 C114.669601,39.3175632 115.637553,40.5735636 115.637553,41.6840699 L115.637553,49.8792498 C115.637553,50.9882714 114.669601,52.2442718 113.602182,52.5129905 C113.079607,52.645123 112.558517,52.7980403 112.032972,52.9420498 L112.032972,38.616816 Z M33.0662355,52.9420498 C32.5406912,52.7965556 32.015147,52.6436383 31.4881181,52.5100213 C30.4073378,52.2368486 29.4616551,51.0075716 29.4616551,49.8792498 L29.4616551,41.6840699 C29.4616551,40.5498095 30.4088224,39.314594 31.4881181,39.0414213 C32.0136624,38.9078042 32.5392066,38.7534023 33.0662355,38.6064235 L33.0662355,52.9420498 Z" id="path-1"></path>
    </defs>
    <g id="Homepage" stroke="none" stroke-width="1" fill="none" fill-rule="evenodd">
        <g id="Main-page" transform="translate(-642.000000, -4336.000000)">
            <g id="icn_latest_tech" transform="translate(643.000000, 4337.000000)">
                <path d="M66.5746098,87.0527561 C66.7650488,87.0527561 66.9599512,87.0170488 67.1474146,86.9381951 C67.3527317,86.8519024 67.5654878,86.7551951 67.7871707,86.657 C68.4656098,86.352 69.2348049,86.0053415 69.7644634,86.0053415 C69.9251463,86.0053415 70.126,86.0975854 70.4667073,86.2582683 C71.0067805,86.5156585 71.7462195,86.8667805 72.7713171,86.8667805 C73.7130976,86.8667805 74.4808049,86.5216098 75.0982439,86.2433902 C75.3377805,86.1347805 75.7037805,85.9696341 75.7751951,85.9577317 L78.8683415,86.7566829 C79.6672927,86.9709268 80.4751707,86.4844146 80.6819756,85.688439 C80.8872927,84.8939512 80.4082195,84.0816098 79.6122439,83.8762927 L76.5205854,83.0773415 C75.4835854,82.806561 74.5909024,83.2082683 73.8767561,83.531122 C73.4646341,83.7156098 73.0733415,83.8911707 72.7713171,83.8911707 C72.4335854,83.8911707 72.1866098,83.7810732 71.7432439,83.5712927 C71.2373902,83.3302683 70.6050732,83.0297317 69.7659512,83.0297317 C68.5980244,83.0297317 67.4717561,83.5370732 66.5686585,83.9432439 C66.3737561,84.0310244 66.1833171,84.1158293 66.0018049,84.1917073 C65.2445122,84.5100976 64.8859512,85.3804634 65.2028537,86.1392439 C65.4394146,86.7090732 65.992878,87.0527561 66.5746098,87.0527561 Z" id="Shape" fill="#9B9B9B" fill-rule="nonzero" transform="translate(72.908490, 85.020420) scale(1, -1) translate(-72.908490, -85.020420) "></path>
                <path d="M38.7883659,40.9873415 L41.7639756,40.9873415 L41.7639756,36.7113902 C41.7639756,35.2816098 43.1208537,34.1196341 44.7871951,34.1196341 L101.124415,34.1196341 C102.792244,34.1196341 104.146146,35.2816098 104.146146,36.7113902 L104.146146,40.9873415 L107.121756,40.9873415 L107.121756,36.7113902 C107.121756,33.6420488 104.430317,31.1440244 101.124415,31.1440244 L44.7871951,31.1440244 C41.4798049,31.1440244 38.7883659,33.6420488 38.7883659,36.7113902 L38.7883659,40.9873415 Z" id="Shape" fill="#68B513" fill-rule="nonzero"></path>
                <path d="M75.0937805,87.9201463 C73.7517805,88.7131463 72.3666341,88.6997561 70.7315366,87.8740244 C69.9995366,87.496122 69.103878,87.7951707 68.7319268,88.5271707 C68.3614634,89.2606585 68.654561,90.1563171 69.3880488,90.5267805 C70.6497073,91.1665366 71.8816098,91.4864146 73.0733415,91.4864146 C74.2978049,91.4864146 75.4776341,91.1501707 76.6098537,90.4806585 C77.316561,90.0625854 77.5501463,89.1490732 77.1320732,88.4423659 C76.7110244,87.7341707 75.8019756,87.5005854 75.0937805,87.9201463 Z" id="Shape" fill="#9B9B9B" fill-rule="nonzero"></path>
                <mask id="mask-2" fill="white">
                    <use xlink:href="#path-1"></use>
                </mask>
                <use id="icn_mask" stroke="#979797" stroke-width="2" fill="#9B9B9B" fill-rule="nonzero" xlink:href="#path-1"></use>
                <rect id="Rectangle-9" stroke="#68B513" fill="#68B513" mask="url(#mask-2)" x="24.4459511" y="24.4467195" width="96.7924524" height="43.9083575"></rect>
                <path d="M124.130341,39.4980488 C123.310561,39.4980488 122.642537,38.8300244 122.642537,38.0102439 L122.642537,35.0346341 C122.642537,34.2133659 123.310561,33.5468293 124.130341,33.5468293 C124.953098,33.5468293 125.618146,34.2133659 125.618146,35.0346341 L125.618146,38.0102439 C125.618146,38.8315122 124.953098,39.4980488 124.130341,39.4980488 Z M124.130341,75.2023902 C123.310561,75.2023902 122.642537,74.5358537 122.642537,73.7145854 L122.642537,70.7389756 C122.642537,69.9177073 123.310561,69.2511707 124.130341,69.2511707 C124.953098,69.2511707 125.618146,69.9177073 125.618146,70.7389756 L125.618146,73.7145854 C125.618146,74.5358537 124.953098,75.2023902 124.130341,75.2023902 Z M124.130341,63.301439 C123.310561,63.301439 122.642537,62.6349024 122.642537,61.8136341 L122.642537,58.8380244 C122.642537,58.0167561 123.310561,57.3502195 124.130341,57.3502195 C124.953098,57.3502195 125.618146,58.0167561 125.618146,58.8380244 L125.618146,61.8136341 C125.618146,62.6349024 124.953098,63.301439 124.130341,63.301439 Z M124.130341,51.399 C123.310561,51.399 122.642537,50.7324634 122.642537,49.9111951 L122.642537,46.9370732 C122.642537,46.1158049 123.310561,45.4492683 124.130341,45.4492683 C124.953098,45.4492683 125.618146,46.1158049 125.618146,46.9370732 L125.618146,49.9111951 C125.618146,50.7324634 124.953098,51.399 124.130341,51.399 Z M138.972683,88.9050732 C139.69278,89.294878 139.963561,90.1994634 139.572268,90.9225366 C139.301488,91.4194634 138.789683,91.7006585 138.261512,91.7006585 C138.021976,91.7006585 137.777976,91.6426341 137.554805,91.5206341 C136.828756,91.1278537 135.973268,90.7335854 135.009171,90.3482439 C134.247415,90.0417561 133.875463,89.1758537 134.180463,88.4126098 C134.485463,87.6493659 135.34839,87.2759268 136.116098,87.5839024 C137.185829,88.0123902 138.146951,88.4572439 138.972683,88.9050732 Z M127.363341,84.941561 C128.162293,85.1290244 128.65922,85.9294634 128.471756,86.7313902 C128.311073,87.4157805 127.698098,87.8784878 127.024122,87.8784878 C126.909561,87.8784878 126.796488,87.8665854 126.683415,87.8398049 C125.765439,87.6240732 124.80878,87.4142927 123.814927,87.2089756 C123.091854,87.0601951 122.629146,86.4040732 122.658902,85.6899268 C122.655927,85.6631463 122.641049,85.6423171 122.641049,85.6155366 L122.641049,82.6399268 C122.641049,81.8186585 123.309073,81.152122 124.128854,81.152122 C124.95161,81.152122 125.616659,81.8186585 125.616659,82.6399268 L125.616659,84.5577073 C126.204341,84.6856585 126.805415,84.8106341 127.363341,84.941561 Z M126.994366,20.7859268 C127.788854,20.5954878 128.595244,21.0879512 128.784195,21.8883902 C128.976122,22.6873415 128.482171,23.4892683 127.68322,23.6797073 C127.022634,23.8374146 126.317415,23.9876829 125.616659,24.1409268 L125.616659,26.1092927 C125.616659,26.930561 124.95161,27.5970976 124.128854,27.5970976 C123.309073,27.5970976 122.641049,26.930561 122.641049,26.1092927 L122.641049,23.1336829 C122.641049,22.6040244 122.937122,22.1591707 123.355195,21.8943415 C123.559024,21.6726585 123.811951,21.4911463 124.128854,21.4256829 C125.122707,21.2173902 126.079366,21.0031463 126.994366,20.7859268 Z M137.816659,17.0336829 C138.53378,16.6349512 139.441341,16.8849024 139.843049,17.5990488 C140.24922,18.3146829 139.996293,19.2222439 139.279171,19.6269268 C138.45939,20.0896341 137.501244,20.547878 136.428537,20.9867805 C136.245537,21.0641463 136.05361,21.0983659 135.864659,21.0983659 C135.279951,21.0983659 134.725,20.7517073 134.486951,20.1759268 C134.176,19.4141707 134.539024,18.5452927 135.30078,18.2343415 C136.255951,17.841561 137.102512,17.436878 137.816659,17.0336829 Z M21.4137805,57.3502195 C22.2350488,57.3502195 22.9015854,58.0167561 22.9015854,58.8380244 L22.9015854,61.8136341 C22.9015854,62.6349024 22.2350488,63.301439 21.4137805,63.301439 C20.5925122,63.301439 19.9259756,62.6349024 19.9259756,61.8136341 L19.9259756,58.8380244 C19.9259756,58.0167561 20.5925122,57.3502195 21.4137805,57.3502195 Z M21.4137805,33.5468293 C22.2350488,33.5468293 22.9015854,34.2133659 22.9015854,35.0346341 L22.9015854,38.0102439 C22.9015854,38.8315122 22.2350488,39.4980488 21.4137805,39.4980488 C20.5925122,39.4980488 19.9259756,38.8315122 19.9259756,38.0102439 L19.9259756,35.0346341 C19.9259756,34.2133659 20.5925122,33.5468293 21.4137805,33.5468293 Z M21.4137805,69.2511707 C22.2350488,69.2511707 22.9015854,69.9177073 22.9015854,70.7389756 L22.9015854,73.7145854 C22.9015854,74.5358537 22.2350488,75.2023902 21.4137805,75.2023902 C20.5925122,75.2023902 19.9259756,74.5358537 19.9259756,73.7145854 L19.9259756,70.7389756 C19.9259756,69.9177073 20.5925122,69.2511707 21.4137805,69.2511707 Z M21.4137805,45.4492683 C22.2350488,45.4492683 22.9015854,46.1158049 22.9015854,46.9370732 L22.9015854,49.9111951 C22.9015854,50.7324634 22.2350488,51.399 21.4137805,51.399 C20.5925122,51.399 19.9259756,50.7324634 19.9259756,49.9111951 L19.9259756,46.9370732 C19.9259756,46.1158049 20.5925122,45.4492683 21.4137805,45.4492683 Z M21.4137805,81.152122 C22.2350488,81.152122 22.9015854,81.8186585 22.9015854,82.638439 L22.9015854,85.6140488 C22.9015854,85.6408293 22.8881951,85.6616585 22.8867073,85.688439 C22.9149756,86.4040732 22.4522683,87.0587073 21.7291951,87.2074878 C20.7338537,87.4128049 19.7786829,87.6225854 18.8621951,87.8383171 C18.7476341,87.8636098 18.634561,87.877 18.5214878,87.877 C17.8460244,87.877 17.2345366,87.4157805 17.0738537,86.7299024 C16.8863902,85.9294634 17.3818293,85.1290244 18.1822683,84.941561 C18.7401951,84.8106341 19.3397805,84.6856585 19.9259756,84.5577073 L19.9259756,82.6399268 C19.9259756,81.8186585 20.5925122,81.152122 21.4137805,81.152122 Z M22.187439,21.8943415 C22.607,22.1576829 22.9015854,22.6025366 22.9015854,23.1336829 L22.9015854,26.1092927 C22.9015854,26.930561 22.2350488,27.5970976 21.4137805,27.5970976 C20.5925122,27.5970976 19.9259756,26.930561 19.9259756,26.1092927 L19.9259756,24.1409268 C19.2252195,23.9876829 18.52,23.8359268 17.8609024,23.6797073 C17.0619512,23.4892683 16.568,22.6873415 16.758439,21.8883902 C16.948878,21.089439 17.7537805,20.5984634 18.5497561,20.7859268 C19.4647561,21.0046341 20.4199268,21.2173902 21.4137805,21.4256829 C21.7306829,21.4911463 21.9836098,21.6726585 22.187439,21.8943415 Z M9.42802439,87.5839024 C10.1927561,87.2774146 11.0571707,87.6508537 11.3621707,88.411122 C11.6686585,89.1743659 11.2981951,90.0402683 10.5349512,90.3467561 C9.57234146,90.7320976 8.71536585,91.1263659 7.99080488,91.5191463 C7.76465854,91.6411463 7.52214634,91.6991707 7.28260976,91.6991707 C6.75443902,91.6991707 6.24263415,91.4179756 5.97334146,90.9210488 C5.58204878,90.1994634 5.85134146,89.2963659 6.57292683,88.9050732 C7.39865854,88.4572439 8.35829268,88.0123902 9.42802439,87.5839024 Z M6.26643902,19.625439 C5.55080488,19.2207561 5.29787805,18.3131951 5.70256098,17.597561 C6.1057561,16.8849024 7.01629268,16.6275122 7.73043902,17.0321951 C8.44458537,17.436878 9.29114634,17.8400732 10.2463171,18.2328537 C11.0065854,18.5438049 11.3696098,19.4126829 11.0586585,20.174439 C10.8220976,20.7502195 10.2671463,21.096878 9.68095122,21.096878 C9.492,21.096878 9.30156098,21.0626585 9.11707317,20.9852927 C8.04734146,20.5463902 7.08770732,20.0896341 6.26643902,19.625439 Z" id="Combined-Shape" fill="#9B9B9B" fill-rule="nonzero"></path>
            </g>
        </g>
    </g>
</svg>