<svg id="Layer_1" data-name="Layer 1" xmlns="http://www.w3.org/2000/svg" viewBox="0 0 64.12 68.96"><defs><style>.cls-1{isolation:isolate;}.cls-2{fill:#333;}</style></defs><g class="cls-1"><path class="cls-2" d="M24.25,34.48a4.68,4.68,0,0,1,4.69,4.69v12.5a4.68,4.68,0,0,1-4.69,4.69H11.75A4.51,4.51,0,0,1,8.43,55a4.49,4.49,0,0,1-1.37-3.32V28.23a15,15,0,0,1,4.59-11,15.05,15.05,0,0,1,11-4.59h.78A2.32,2.32,0,0,1,25.81,15v4.69A2.32,2.32,0,0,1,23.47,22h-.78a6.34,6.34,0,0,0-6.25,6.25v6.25Zm28.12,0a4.68,4.68,0,0,1,4.69,4.69v12.5a4.68,4.68,0,0,1-4.69,4.69H39.87a4.66,4.66,0,0,1-4.68-4.69V28.23a15,15,0,0,1,4.58-11,15.05,15.05,0,0,1,11-4.59h.78A2.34,2.34,0,0,1,53.94,15v4.69A2.34,2.34,0,0,1,51.59,22h-.78a6.35,6.35,0,0,0-6.25,6.25v6.25Z"/></g></svg>