<svg id="Layer_1" data-name="Layer 1" xmlns="http://www.w3.org/2000/svg" viewBox="0 0 64.12 68.96"><defs><style>.cls-1{isolation:isolate;}.cls-2{fill:#333;}</style></defs><g class="cls-1"><path class="cls-2" d="M24.25,12.61a4.66,4.66,0,0,1,4.69,4.68V40.73a15.05,15.05,0,0,1-4.59,11,15.07,15.07,0,0,1-11,4.59h-.78A2.34,2.34,0,0,1,10.19,54V49.33A2.34,2.34,0,0,1,12.53,47h.78a6,6,0,0,0,4.39-1.85,6,6,0,0,0,1.86-4.4V34.48H11.75a4.5,4.5,0,0,1-3.32-1.36,4.55,4.55,0,0,1-1.37-3.33V17.29a4.66,4.66,0,0,1,4.69-4.68Zm28.12,0a4.66,4.66,0,0,1,4.69,4.68V40.73A15.67,15.67,0,0,1,41.44,56.36h-.79A2.34,2.34,0,0,1,38.31,54V49.33A2.34,2.34,0,0,1,40.65,47h.79a6.34,6.34,0,0,0,6.25-6.25V34.48H39.87a4.64,4.64,0,0,1-4.68-4.69V17.29a4.64,4.64,0,0,1,4.68-4.68Z"/></g></svg>